<svg xmlns="http://www.w3.org/2000/svg" xmlns:xlink="http://www.w3.org/1999/xlink" viewBox="0 0 1440 520"><style>.l{fill:none}.m{fill:#676c74}.n{fill:#36404c}.o{fill:#3d454d}.p{fill:#f2f2f2}.q{fill:#030303}</style><defs><clipPath id="H"><path d="M111.11 325.85h22.5v8.82h-22.5z" class="l"/></clipPath><clipPath id="A"><path d="M91.06 275.96h239.22v80.14H91.06z" class="l"/></clipPath><clipPath id="C"><path d="M91.06 275.96h239.22v80.14H91.06z" class="l"/></clipPath><clipPath id="D"><path d="M165.67 338.17h113v11.01h-113z" class="l"/></clipPath><clipPath id="E"><path d="M92.82 338.17h48.74v11.01H92.82z" class="l"/></clipPath><clipPath id="F"><path d="M302.78 338.16h22.47v11.01h-22.47z" class="l"/></clipPath><clipPath id="G"><path d="M95.42 275.96h67.97v4.95H95.42z" class="l"/></clipPath><clipPath id="B"><path d="M91.06 275.96h239.22v80.14H91.06z" class="l"/></clipPath><clipPath id="I"><path d="M1219.37 312.02h142.87v43.61h-142.87z" class="l"/></clipPath><clipPath id="J"><path d="M1219.37 312.02h142.87v43.61h-142.87z" class="l"/></clipPath><path id="K" d="M278.57 343.68a12.16 12.16 0 0 0 11.9 12.41 12.16 12.16 0 0 0 12.41-11.9 12.16 12.16 0 0 0-11.9-12.41 12.16 12.16 0 0 0-12.41 11.9"/><path id="L" d="M290.76 351.35c-4.1 0-7.4-3.3-7.39-7.4 0-3.99 3.35-7.32 7.35-7.33 4.09-.01 7.44 3.32 7.41 7.39-.03 4.1-3.27 7.34-7.37 7.34"/><path id="M" d="M1288.88 330.87h4.73a.37.37 0 0 1 .37.37c0 .16-.1.29-.24.34l-.13.05c-.2.07-.39.1-.59.16l-.59.09c-.39.06-.79.07-1.18.08-.39 0-.79-.01-1.18-.07l-.59-.09-.59-.16-.13-.05a.362.362 0 0 1-.21-.47c.06-.14.19-.23.34-.23"/><path id="N" d="M1333.03 355.64c-5.51 0-9.95-4.44-9.94-9.95 0-5.37 4.5-9.85 9.89-9.86 5.5-.02 10 4.47 9.96 9.94-.04 5.52-4.4 9.87-9.91 9.87"/><path id="O" d="M1336.42 341.84c1.06.44 1.77 1.64 1.78 2.91-.73.07-1.33-.18-1.77-.74-.53-.68-.27-1.4-.01-2.17"/></defs><g style="isolation:isolate"><path fill="#cbd5e1" d="M1441.04 146.67v-28.38h-6.78v-16.93h-1.61v-2.29s.37-.21.37-.36.21-.38.21-.38l.82-.14-1.47-.29s.1-.64-.1-.81l-1.88-1.53-.09-1.21v-.15.07l-.01-.07v.15l-.09 1.21-1.88 1.53c-.2.17-.1.81-.1.81l-1.47.29.82.14s.2.24.2.38.37.36.37.36v2.29h-3.15v-2.29s.38-.21.38-.36.2-.38.2-.38l.82-.14-1.47-.29s.1-.64-.1-.81l-1.88-1.53-.09-1.21v-.15.07l-.01-.07v.15l-.09 1.21-1.88 1.53c-.2.17-.1.81-.1.81l-1.09.21c-.17-1.3-1.07-6.48-4.47-7.23l-3.89-.86.72-.5s-.21-.29-1.54-.43-2.05-.29-2.56-.57c-.51-.29-1.13-1.07-1.13-1.07l.82-.29s-1.13-.5-1.23-.79.51-.79.21-1c-.24-.17-.81-1.59-1.03-2.18v-.25l-.05.13-.05-.13v.25c-.22.59-.79 2.01-1.03 2.18-.31.22.31.72.21 1-.1.29-1.23.79-1.23.79l.82.29s-.61.79-1.13 1.07c-.51.29-1.23.43-2.56.57s-1.54.43-1.54.43l.72.5-3.89.86c-3.89.86-4.5 7.52-4.5 7.52h-1.53v2.95h-1.51v-2.29s.46-.21.46-.36.25-.38.25-.38l1-.14-1.78-.29s.12-.64-.12-.81l-2.28-1.53-.11-1.21v-.15.07l-.01-.07v.15l-.11 1.21-2.28 1.53c-.25.17-.12.81-.12.81l-1.78.29 1 .14s.25.24.25.38.46.36.46.36v2.29h-3.83v-2.29s.46-.21.46-.36.25-.38.25-.38l1-.14-1.78-.29s.13-.64-.12-.81l-2.28-1.53-.11-1.21v-.15.07l-.01-.07v.15l-.11 1.21-2.28 1.53c-.25.17-.12.81-.12.81l-1.78.29.99.14s.25.24.25.38.46.36.46.36v2.29h-2.52V74.8l-1.55-3.92-1.41 4.01v3.82h-2.59v-2.44s.4-.22.4-.36.22-.38.22-.38l.86-.14-1.54-.29s.11-.64-.11-.81l-1.97-1.53-.1-1.21v-.15.07l-.01-.07v.15l-.1 1.21-1.97 1.53c-.22.17-.11.81-.11.81l-1.54.29.86.14s.22.24.22.38.4.36.4.36v2.44h-3.68v-2.44s.4-.22.4-.36.22-.38.22-.38l.86-.14-1.54-.29s.11-.64-.11-.81l-1.98-1.53-.1-1.21v-.15.07l-.01-.07v.15l-.1 1.21-1.97 1.53c-.22.17-.11.81-.11.81l-1.54.29.86.14s.22.24.22.38.4.36.4.36v2.44h-3.68v-2.44s.4-.22.4-.36.22-.38.22-.38l.86-.14-1.54-.29s.11-.64-.11-.81l-1.97-1.53-.1-1.21v-.15.07l-.01-.07v.15l-.1 1.21-1.97 1.53c-.22.17-.11.81-.11.81l-1.54.29.86.14s.22.24.22.38.4.36.4.36v2.44h-3.68v-2.44s.39-.22.39-.36.22-.38.22-.38l.86-.14-1.54-.29s.11-.64-.11-.81l-1.98-1.53-.1-1.21v-.15.07l-.01-.07v.15l-.1 1.21-1.98 1.53c-.21.17-.11.81-.11.81l-1.54.29.86.14s.22.24.22.38.39.36.39.36v2.44h-3.68v-2.44s.4-.22.4-.36.22-.38.22-.38l.86-.14-1.54-.29s.11-.64-.11-.81l-1.97-1.53-.09-1.21v-.15.07l-.01-.07v.15l-.1 1.21-1.97 1.53c-.22.17-.11.81-.11.81l-1.54.29.86.14s.22.24.22.38.4.36.4.36v2.44h-3.68v-2.44s.4-.22.4-.36.22-.38.22-.38l.86-.14-1.54-.29s.11-.64-.11-.81l-1.97-1.53-.1-1.21v-.15.07l-.01-.07v.15l-.1 1.21-1.98 1.53c-.21.17-.11.81-.11.81l-1.54.29.86.14s.22.24.22.38.39.36.39.36v2.44h-1.84v-3.92l-1.41-3.15-1.41 3.25v2.86l-.84.57v.67l.56.67v21.68h-1.45v-2.29s.39-.21.39-.36.21-.38.21-.38l.85-.14-1.52-.29s.11-.64-.1-.81l-1.94-1.53-.09-1.21v-.15.07l-.01-.07v.15l-.09 1.21-1.94 1.53c-.21.17-.11.81-.11.81l-1.52.29.85.14s.21.24.21.38.39.36.39.36v2.29h-3.26v-2.29s.39-.21.39-.36.21-.38.21-.38l.85-.14-1.52-.29s.11-.64-.11-.81l-1.94-1.53-.09-1.21v-.15.07l-.01-.07v.15l-.09 1.21-1.94 1.53c-.21.17-.11.81-.11.81l-1.52.29.85.14s.21.24.21.38.39.36.39.36v2.29h-1.83v-2.95h-1.53s-.61-6.66-4.5-7.52l-3.89-.86.72-.5s-.2-.29-1.53-.43-2.05-.29-2.56-.57c-.51-.29-1.13-1.07-1.13-1.07l.82-.29s-1.13-.5-1.23-.79.51-.79.21-1c-.24-.17-.81-1.59-1.03-2.18v-.25l-.05.13-.05-.13v.25c-.23.59-.79 2.01-1.03 2.18-.31.22.31.72.2 1-.1.29-1.23.79-1.23.79l.82.29s-.61.79-1.13 1.07c-.51.29-1.23.43-2.56.57s-1.54.43-1.54.43l.72.5-3.89.86c-3.24.72-4.21 5.47-4.44 7.03h-.07s.1-.66-.1-.83l-1.88-1.53-.09-1.21v-.15.07l-.01-.07v.15l-.09 1.21-1.88 1.53c-.2.17-.1.81-.1.81l-1.47.29.82.14s.2.24.2.38.37.36.37.36v2.33h-2.94v-2.33s.38-.21.38-.36.2-.38.2-.38l.82-.14-1.47-.29s.1-.64-.1-.81l-1.88-1.53-.09-1.21v-.15.07l-.01-.07v.15l-.09 1.21-1.88 1.53c-.2.17-.1.81-.1.81l-1.47.29.82.14s.2.24.2.38.38.36.38.36v2.33h-.92v16.9h-3.96V84.01l-.88-1.69h-3.08V68l.66-1.23v-1.39l-1.76-.77v-7.85l1.54-.62v-1.39l-1.54-1.08v-5.7l.88-.92v-1.23l-1.1-.77-.44-1.54 1.32-.62s.42-4.74-3.3-4.92h-.22c-3.72.18-3.3 4.92-3.3 4.92l1.32.62-.44 1.54-1.1.77v1.23l.88.92v5.7l-1.54 1.08v1.39l1.54.62v7.85l-1.76.77v1.39l.66 1.23v14.32h-.48v-.15h-4.46v-1.82l.58-1.08v-1.22l-1.55-.68v-6.9l1.35-.54v-1.22l-1.35-.95v-5l.77-.81v-1.08l-.97-.68-.39-1.35 1.16-.54s.37-4.16-2.9-4.32h-.2c-3.27.16-2.9 4.32-2.9 4.32l1.16.54-.39 1.35-.97.68v1.08l.77.81v5l-1.35.95v1.22l1.35.54v6.9l-1.55.68v1.22l.58 1.08v1.82h-10.34v-7.39l-1.32-1.08 3.3-2.93-3.3-.15s-.45-2.34-1.54-3.23c-1.6-1.31-3.08-1.85-3.08-1.85s-3.3.92-4.18 2.31-.88 2.62-.88 2.62h-2.86l1.98 2.77h-28.78l1.98-2.77h-2.86s0-1.23-.88-2.62-4.18-2.31-4.18-2.31-2.2.77-3.08 1.85c-.83 1.02-1.54 3.23-1.54 3.23l-3.3.15 3.3 2.93-1.32 1.08v7.39h-7.81v-1.82l.58-1.08v-1.22l-1.55-.68v-6.9l1.35-.54v-1.22l-1.35-.95v-5l.77-.81v-1.08l-.97-.68-.39-1.35 1.16-.54s.37-4.16-2.9-4.32h-.2c-3.27.16-2.9 4.32-2.9 4.32l1.16.54-.39 1.35-.97.68v1.08l.77.81v5l-1.35.95v1.22l1.35.54v6.9l-1.55.68v1.22l.58 1.08v1.82h-4.58V68l.66-1.23v-1.39l-1.76-.77v-7.85l1.54-.62v-1.39l-1.54-1.08v-5.7l.88-.92v-1.23l-1.1-.77-.44-1.54 1.32-.62s.42-4.74-3.3-4.92h-.22c-3.72.18-3.3 4.92-3.3 4.92l1.32.62-.44 1.54-1.1.77v1.23l.88.92v5.7l-1.54 1.08v1.39l1.54.62v7.85l-1.76.77v1.39l.66 1.23v14.32h-3.08l-.88 1.69v34.27h-3.29v-3.07l-1.33-1.06V98.11s2.08-.53 1.89-1.06-3.03-.8-3.03-.8V78.36s2.08-1.06 2.08-1.46-3.41-1.33-3.41-1.33V59.4l1.89-1.86-3.03-1.33v-2.39s1.39-1.59 1.01-1.9-1.83-1.63-2.9-1.72c0 0 .44-1.94-1.7-1.99l-1.5-4.5v-1.55h-.52v1.55l-1.5 4.5c-2.15.04-1.7 1.99-1.7 1.99-1.07.09-2.53 1.41-2.9 1.72-.38.31 1.01 1.9 1.01 1.9v2.39l-3.03 1.33 1.89 1.86v16.17s-3.41.93-3.41 1.33 2.08 1.46 2.08 1.46v17.89s-2.84.27-3.03.8 1.89 1.06 1.89 1.06v.66c-.21-.43-.89-.74-1.7-.74-.98 0-1.77.45-1.77 1.02v.04-.04c0-.56-.79-1.02-1.76-1.02s-1.77.45-1.77 1.02v.04-.04c0-.56-.79-1.02-1.76-1.02s-1.77.45-1.77 1.02v.04-.04c0-.56-.79-1.02-1.76-1.02s-1.77.45-1.77 1.02v.04-.04c0-.56-.79-1.02-1.76-1.02s-1.77.45-1.77 1.02v.04-.04c0-.4-.39-.74-.97-.91v-.95s1.32-.46.38-1.26c0 0 3.12-7.56-6.72-10.07 0 0 .09-1.06-2.27-1.33-2.37-.26-2.56-1.19-3.03-1.59s-.28-.93-.28-1.13.09-.6-.1-.86c-.19-.27-.19-.93-.09-1.26.03-.11-.06-.47-.19-.89v-1.83h-.66v1.83c-.13.42-.22.78-.19.89.1.33.1.99-.09 1.26s-.09.66-.09.86.19.73-.28 1.13-.66 1.33-3.03 1.59c-2.37.27-2.27 1.33-2.27 1.33-9.85 2.52-6.72 10.07-6.72 10.07-.95.8.38 1.26.38 1.26v.85h-.25c-.98-.01-1.77.44-1.77 1.01v.04-.04c0-.56-.79-1.02-1.76-1.02s-1.77.45-1.77 1.02v.04-.04c0-.56-.79-1.02-1.76-1.02-.15 0-.29.01-.43.03V85.75l.5-.62v-.62l-.82-.58v-2.52s.38-.26.32-.49c-.06-.22-.44-.35-.44-.35v-.66s.06-.75.76-1.02c.69-.27 1.33-.4 1.07-.66-.25-.27-1.33-.84-1.33-.84v-1.46s1.58-.57 1.39-.75-1.83-.93-2.02-1.06c-.16-.11-1.26-3.2-1.56-4.06h-.08c-.3.86-1.4 3.95-1.56 4.06-.19.13-1.83.88-2.02 1.06s1.39.75 1.39.75v1.46s-1.07.57-1.33.84c-.25.27.38.4 1.07.66.69.27.76 1.02.76 1.02v.66s-.38.13-.44.35.32.49.32.49v.2h-7.42s-.66-2.32-3.6-2.92c0 0-1.89-1.79-3.88-2.39s-3.6-2.65-3.6-2.65.38-.27.38-1.06-.57-.99-.57-1.39-.19-1.52-.19-1.52l-.66-4.38v-1.25h-.19v1.25l-.66 4.38s-.19 1.13-.19 1.52-.57.6-.57 1.39.38 1.06.38 1.06-1.61 2.05-3.6 2.65-3.88 2.39-3.88 2.39c-2.94.6-3.6 2.92-3.6 2.92h-6.9v-.2s.38-.26.32-.49c-.06-.22-.44-.35-.44-.35v-.66s.06-.75.76-1.02c.69-.27 1.33-.4 1.07-.66-.25-.27-1.33-.84-1.33-.84v-1.46s1.58-.57 1.39-.75-1.83-.93-2.02-1.06c-.16-.11-1.26-3.2-1.56-4.06h-.08c-.3.86-1.4 3.95-1.56 4.06-.19.13-1.83.88-2.02 1.06s1.39.75 1.39.75v1.46s-1.07.57-1.33.84c-.25.27.38.4 1.07.66.69.27.76 1.02.76 1.02v.66s-.38.13-.44.35.31.49.31.49v2.52l-.82.57v.62l.51.62v12.37l.14.14c-.39.19-.65.47-.65.79v.04-.04c0-.56-.79-1.02-1.77-1.02s-1.77.45-1.77 1.02v.04-.04c0-.56-.79-1.02-1.76-1.02s-1.77.45-1.77 1.02v.04-.04c0-.56-.79-1.02-1.76-1.02h-.09v-.84s1.33-.46.38-1.26c0 0 3.13-7.56-6.72-10.07 0 0 .09-1.06-2.27-1.33-2.37-.26-2.56-1.19-3.03-1.59s-.29-.93-.29-1.13.09-.6-.09-.86c-.19-.27-.19-.93-.1-1.26.03-.11-.06-.47-.19-.89v-1.83h-.66v1.83c-.13.42-.22.78-.19.89.09.33.09.99-.1 1.26s-.09.66-.09.86.19.73-.28 1.13-.66 1.33-3.03 1.59c-2.37.27-2.27 1.33-2.27 1.33-9.85 2.52-6.72 10.07-6.72 10.07-.95.79.38 1.26.38 1.26v.91c-.66.15-1.14.51-1.14.95v.04-.04c0-.56-.79-1.02-1.76-1.02s-1.77.45-1.77 1.02v.04-.04c0-.56-.79-1.02-1.76-1.02s-1.77.45-1.77 1.02v.04-.04c0-.56-.79-1.02-1.76-1.02s-1.77.45-1.77 1.02v.04-.04c0-.56-.79-1.02-1.76-1.02s-1.77.45-1.77 1.02v.04-.04c0-.56-.79-1.02-1.76-1.02-.57 0-1.08.16-1.4.4v-.31s2.08-.53 1.89-1.06-3.03-.8-3.03-.8V78.36s2.08-1.06 2.08-1.46-3.41-1.33-3.41-1.33V59.4l1.89-1.86-3.03-1.33v-2.39s1.39-1.59 1.01-1.9-1.83-1.63-2.9-1.72c0 0 .44-1.94-1.7-1.99l-1.5-4.5v-1.55h-.52v1.55l-1.5 4.5c-2.15.04-1.7 1.99-1.7 1.99-1.07.09-2.52 1.41-2.9 1.72s1.01 1.9 1.01 1.9v2.39l-3.03 1.33 1.89 1.86v16.17s-3.41.93-3.41 1.33 2.08 1.46 2.08 1.46v17.89s-2.84.26-3.03.8c-.19.53 1.89 1.06 1.89 1.06v16.04l-1.33 1.06v3.07h-4.5V101.3h-2.79l-.09-1.83-2.85-.31V81.83l1.53-1.07v-1.23l-2.19-.15V62.51l.88-1.07v-1.07h-1.97l-1.31-18.56 1.53-.77v-1.53l-1.53-.46v-4.76l2.19-.77-1.97-.61s-1.1-4.75-4.82-4.75l-.88-4.4v-2.2h-.44v2.2l-.88 4.4c-3.73 0-4.82 4.75-4.82 4.75l-1.97.61 2.19.77v4.76l-1.53.46v1.53l1.53.77-1.32 18.56h-1.97v1.07l.88 1.07v16.87l-2.19.15v1.23l1.53 1.07v17.33l-2.85.31-.09 1.83h-9.83V88.53l1.17-.82v-.94l-1.68-.12V73.74l.67-.82v-.82h-1.51l-1.01-14.2 1.17-.59v-1.17l-1.17-.35v-3.64l1.68-.59-1.51-.47s-.84-3.64-3.69-3.64l-.67-3.37V42.4h-.34v1.68l-.67 3.37c-2.85 0-3.69 3.64-3.69 3.64l-1.51.47 1.68.59v3.64l-1.17.35v1.17l1.17.59-1 14.2h-1.51v.82l.67.82v12.91l-1.68.12v.94l1.17.82v10.98h-16.72v-33.9l1.02-.46s-1.53-2.56-1.53-2.71-.73-5.88-.73-5.88h-5.41l-4.16 2.86v2.76l-5.7-.41-3.14.05-.07-6.85 1.39-.36.44-.87-1.53-.41s.22-6.08-6.06-7.77l.58-.2-3.87-1.48c-.22-.05-1.17-.46-1.17-.46l-.51-4.86-.8 4.96s-1.1.41-1.68.67-2.26 1.12-2.26 1.12l.29.36.66.2s-1.39.1-2.12.66-1.1.92-1.1.92l.15-2.51s9.5-15.24-17.09-26.49c0 0 .95-.61.29-1.07s-2.41-.67-3.95-1.38c-1.53-.72-3.58-2.66-4.75-3.07s-1.61-.51-1.61-.51.58-.2.37-.41c-.22-.21-1.02-.51-1.02-.51s-.07-.77-.51-.97-1.46-.41-1.46-.41v-.46s1.02-.46 1.02-.82-.8-.82-.8-.82v-.56s1.24-.31 1.24-1.02-1.32-1.84-1.32-1.84l-.14-1.14c-.1 0-.2 0-.3-.01l-.14 1.16s-1.31 1.13-1.31 1.84 1.24 1.02 1.24 1.02v.56s-.8.46-.8.82 1.02.81 1.02.82v.46s-1.02.21-1.46.41-.51.97-.51.97-.8.31-1.02.51.37.41.37.41-.44.1-1.61.51-3.21 2.35-4.75 3.07c-1.53.72-3.29.92-3.95 1.38s.29 1.07.29 1.07c-26.59 11.25-17.1 26.49-17.1 26.49l.15 2.51s-.37-.36-1.09-.92c-.73-.56-2.12-.66-2.12-.66l.66-.2.29-.36s-1.68-.87-2.27-1.12c-.58-.26-1.68-.67-1.68-.67l-.8-4.96-.51 4.86s-.95.41-1.17.46-3.87 1.48-3.87 1.48l.58.2c-6.28 1.69-6.06 7.77-6.06 7.77l-1.53.41.44.87 1.39.36-.07 6.85-2.09-.03v-4.64s.34-.17.29-.27-.24-.38-.24-.38l.24-.72.44-.24-.39-.2c0-.44-.83-.61-.83-.61l-.29-2.59-.24 2.59c-.73.07-.73.61-.73.61s-.49.1-.59.2.49.17.49.17 0 .14.1.31.14.58.14.58-.29.17-.24.27.24.17.24.17v4.76l-5.14.37v-2.76l-3.04-2.09v-2.12s.34-.17.29-.27-.24-.38-.24-.38l.24-.72.44-.24-.39-.2c0-.44-.83-.61-.83-.61l-.29-2.59-.24 2.59c-.73.07-.73.61-.73.61s-.49.1-.59.2.49.17.49.17 0 .14.1.31.14.58.14.58-.29.17-.24.27.24.17.24.17v1.45h-2.19v-4.89s.34-.17.29-.27-.24-.38-.24-.38l.24-.72.44-.24-.39-.2c0-.44-.83-.61-.83-.61l-.29-2.59-.24 2.59c-.73.07-.73.61-.73.61s-.49.1-.58.2c-.1.1.49.17.49.17s0 .14.1.31.15.58.15.58-.29.17-.24.27.24.17.24.17v4.86l-.29-.15c0-.44-.83-.61-.83-.61l-.29-2.59-.24 2.59c-.73.07-.73.61-.73.61s-.49.1-.58.2c-.1.1.49.17.49.17s0 .14.1.31.15.58.15.58-.29.17-.24.27.24.17.24.17v5.22c-.45.8-1.14 1.95-1.14 1.95l1.02.46v33.9h-16.06V88.51l1.18-.82v-.94l-1.68-.12V73.72l.67-.82v-.82h-1.51l-1.01-14.2 1.17-.59v-1.17l-1.17-.35v-3.64l1.68-.59-1.51-.47s-.84-3.64-3.69-3.64l-.67-3.37v-1.68h-.33v1.68l-.67 3.37c-2.85 0-3.69 3.64-3.69 3.64l-1.51.47 1.68.59v3.64l-1.17.35v1.17l1.17.59-1.01 14.2h-1.51v.82l.67.82v12.91l-1.68.12v.94l1.17.82v12.77h-9.02l-.09-1.83-2.85-.31V81.81l1.53-1.07v-1.23l-2.19-.15V62.49l.88-1.07v-1.07h-1.97l-1.31-18.56 1.53-.77v-1.53l-1.53-.46v-4.76l2.19-.77-1.97-.61s-1.1-4.75-4.82-4.75l-.88-4.4v-2.2h-.44v2.2l-.88 4.4c-3.73 0-4.82 4.75-4.82 4.75l-1.97.61 2.19.77v4.76l-1.53.46v1.53l1.53.77-1.32 18.56h-1.97v1.07l.88 1.07v16.87l-2.19.15v1.23l1.53 1.07v17.33l-2.85.31-.09 1.83h-1.86v16.98h-3.75c1.37 6.71 2.4 13.34 2.53 20.15l.14 8.23h-3.64c1.15-10.3-.45-20.73-.58-31.04h-.5V96.18l.89-1.55h-.89V73.51l3.11-4.35v-1.71h-4.88v-5.44l-1.78-.16v-3.41l-4.88-.62v-9.47h-14.42V46.8h-3.77s-5.99-2.33-7.99-2.64c0 0-.39-.96-3.77-1.21v-.04c-.11 0-.22.01-.33.02-.11 0-.22-.01-.33-.02v.04c-3.38.24-3.77 1.21-3.77 1.21-2 .31-7.99 2.64-7.99 2.64h-3.77v1.55h-14.42v9.47l-4.88.62v3.41l-1.78.16v5.44h-4.88v1.71l3.11 4.35v21.12h-.89l.89 1.55v19.41h-.34c.2.37.32.78.31 1.25-.03 8.7-.72 17.41-2.26 26.03h-2.87v-3.38h-12.33l1.8-3.3.28-1.94-7.06-6.74-5.96 3.44v-5.43s1.66-1.74 1.11-3.68-1.66-3.1-2.77-5.82c-1.11-2.71 2.22-4.27 1.66-9.69-.55-5.43-3.88-7.37-3.88-7.95s5.54 0 3.6-1.74c-1.94-1.75-3.05-7.56-3.05-7.56v-2.91s1.66-1.36.83-1.94-.83-1.55-.55-2.52.55-.78-.28-3.1c-.83-2.33-1.66-6.59-1.66-6.59s1.94-.77 1.66-1.94c-.28-1.16-1.11-2.71-1.11-2.71s2.22-.39 1.94-.97-1.38-1.94-2.22-2.13c-.83-.19-.83-2.71-.83-2.71s1.39-.58 1.66-1.75c.28-1.16.55-3.1.55-3.1s1.66.97 2.49-.78c.83-1.74-.28-3.49-.28-6.59s.28-4.65.28-4.65l2.77-1.16-5.26-6.98s-3.88-1.94-5.82-.97-1.94-1.36-3.05-3.1-6.37.39-6.93-1.16v-4.26s-.24 1.16-.55 2.39c-.32-1.23-.55-2.39-.55-2.39v4.26c-.55 1.55-5.82-.58-6.93 1.16s-1.11 4.07-3.05 3.1-5.82.97-5.82.97l-5.26 6.98 2.77 1.16s.28 1.55.28 4.65-1.11 4.85-.28 6.59c.83 1.75 2.49.78 2.49.78s.28 1.94.55 3.1c.28 1.16 1.66 1.75 1.66 1.75s0 2.52-.83 2.71-1.94 1.55-2.22 2.13 1.94.97 1.94.97-.83 1.55-1.11 2.71 1.66 1.94 1.66 1.94-.83 4.27-1.66 6.59c-.83 2.33-.55 2.13-.28 3.1.28.97.28 1.94-.55 2.52s.83 1.94.83 1.94v2.91s-1.11 5.82-3.05 7.56 3.6 1.16 3.6 1.74-3.32 2.52-3.88 7.95 2.77 6.98 1.66 9.69-2.22 3.88-2.77 5.82 1.11 3.68 1.11 3.68v5.43l-6.23-3.59-6.79 6.88.28 1.94 1.52 3.3h-5.97c-1.02-11.04-2.04-22.08-2.25-33.14-.17 0-.34-.01-.51-.02V81.19l3.18-4.01v-1.56h-3.82v-6.24l1.59-1.78-2.23-2.01v-2.23h-40.76V55.5l1.19-1.17-1.43-1.5v-7.86s1.2-1 .24-1.67-4.3-4.85-4.3-4.85l-1.43-2.84-.96 2.51s-3.58 4.51-3.82 5.35-.24 1.84-.24 1.84l.95 1v2.17l-.95 1.51h-41.95l-.96-1.51v-2.17l.96-1s0-1-.24-1.84-3.82-5.35-3.82-5.35l-.96-2.51-1.43 2.84s-3.34 4.18-4.3 4.85.24 1.67.24 1.67v7.86l-1.43 1.5 1.2 1.17v7.86h-40.76v2.23l-2.23 2.01 1.59 1.78v6.24h-3.82v1.56l3.18 4.01v12.04h-.28l.65 53.37h-2.65c.6-9.46 1.12-18.91 1.33-28.38h-.21c-.36-1.16-.9-1.96-1.11-4.04-.27-2.66-1.9-.38-1.9-3.61s2.17-3.42 0-5.31c-2.17-1.9-3.25-.95-2.98-3.42s.27-3.8-1.08-4.18c-1.36-.38-1.36-2.47-1.36-3.23s-3.52-2.47-3.52-2.47 1.08-.76 1.08-2.28-.54-4.55-1.36-4.55-1.63-1.52-1.63-1.52-2.44-4.56-2.44-5.5 3.25-.38 0-1.71c-3.26-1.33-.81-6.07-2.71-6.07s-.54-1.33-1.63-3.04l-1.08-1.71-1.63-4.18s1.77-1.38.55-3.08c-1.22-1.71-1.22-1.99-2.64-2.7s-.81-1.28-1.42-2.85-.41-1.99-1.02-2.56-.61-3.56-.61-3.56.81-2.56-.81-2.99c-1.63-.43.61-2.14-.61-3.27-1.22-1.14-2.85-2.28-2.03-3.27.81-1 3.66-2.28 1.42-2.28s-2.85-.85-2.85-.85-.61-3.27-.61-4.41-.82-7.26-.82-7.26l1.42-1.28s.61-2.56-1.02-2.13-2.44.85-2.44.85-3.05-2.85-2.44-1.57 0 6.55 0 6.55h-.42c-.48-.77-1.53-.62-1.53-.62s.36-.1.36-.44-.63-.41-.63-.41 2.08-.35 2.08-1.14-1.81-1.33-1.81-1.33.41-.16.41-.35-.36-.28-.36-.28.59-.41.5-.66-.45-.35-.59-.7c-.1-.25-.29-.43-.38-.52v-.05l-.03.03-.03-.03v.05c-.1.08-.29.27-.38.52-.14.35-.5.44-.59.7-.09.25.5.66.5.66s-.36.09-.36.28.41.35.41.35-1.81.54-1.81 1.33 2.08 1.14 2.08 1.14-.63.06-.63.41.36.44.36.44-1.06-.15-1.53.62h-1.36c-.48-.77-1.54-.62-1.54-.62s.36-.1.36-.44-.63-.41-.63-.41 2.08-.35 2.08-1.14-1.81-1.33-1.81-1.33.41-.16.41-.35-.36-.28-.36-.28.59-.41.5-.66-.45-.35-.59-.7a1.45 1.45 0 0 0-.38-.52v-.05l-.03.03-.03-.03v.05c-.1.08-.29.27-.38.52-.14.35-.5.44-.59.7-.09.25.5.66.5.66s-.36.09-.36.28.41.35.41.35-1.81.54-1.81 1.33 2.08 1.14 2.08 1.14-.63.06-.63.41.36.44.36.44-1.06-.15-1.53.62h-1.36c-.48-.77-1.54-.62-1.54-.62s.36-.1.36-.44-.63-.41-.63-.41 2.08-.35 2.08-1.14-1.81-1.33-1.81-1.33.41-.16.41-.35-.36-.28-.36-.28.59-.41.5-.66-.45-.35-.59-.7a1.45 1.45 0 0 0-.38-.52v-.05l-.03.03-.03-.03v.05c-.1.08-.29.27-.38.52-.14.35-.5.44-.59.7-.09.25.5.66.5.66s-.36.09-.36.28.41.35.41.35-1.81.54-1.81 1.33 2.08 1.14 2.08 1.14-.63.06-.63.41.36.44.36.44-1.06-.15-1.54.62h-1.36c-.48-.77-1.53-.62-1.53-.62s.36-.1.36-.44-.63-.41-.63-.41 2.08-.35 2.08-1.14-1.81-1.33-1.81-1.33.41-.16.41-.35-.36-.28-.36-.28.59-.41.5-.66-.45-.35-.59-.7a1.45 1.45 0 0 0-.38-.52v-.05l-.03.03-.04-.03v.05c-.1.08-.29.27-.38.52-.14.35-.5.44-.59.7-.09.25.5.66.5.66s-.36.09-.36.28.41.35.41.35-1.81.54-1.81 1.33 2.08 1.14 2.08 1.14-.63.06-.63.41.36.44.36.44-1.06-.15-1.54.62h-1.36c-.48-.77-1.53-.62-1.53-.62s.36-.1.36-.44-.63-.41-.63-.41 2.08-.35 2.08-1.14-1.81-1.33-1.81-1.33.41-.16.41-.35-.36-.28-.36-.28.59-.41.5-.66-.45-.35-.59-.7a1.45 1.45 0 0 0-.38-.52v-.05l-.03.03-.03-.03v.05c-.1.08-.29.27-.38.52-.14.35-.5.44-.59.7-.09.25.5.66.5.66s-.36.09-.36.28.41.35.41.35-1.81.54-1.81 1.33 2.08 1.14 2.08 1.14-.63.06-.63.41.36.44.36.44-1.06-.15-1.54.62h-1.36c-.48-.77-1.54-.62-1.54-.62s.36-.1.36-.44-.63-.41-.63-.41 2.08-.35 2.08-1.14-1.81-1.33-1.81-1.33.41-.16.41-.35-.36-.28-.36-.28.59-.41.5-.66-.45-.35-.59-.7a1.45 1.45 0 0 0-.38-.52v-.05l-.03.03-.03-.03v.05c-.1.08-.29.27-.38.52-.14.35-.5.44-.59.7-.09.25.5.66.5.66s-.36.09-.36.28.41.35.41.35-1.81.54-1.81 1.33 2.08 1.14 2.08 1.14-.63.06-.63.41.36.44.36.44-1.06-.15-1.54.62h-1.36c-.48-.77-1.54-.62-1.54-.62s.36-.1.36-.44-.63-.41-.63-.41 2.08-.35 2.08-1.14-1.81-1.33-1.81-1.33.41-.16.41-.35-.36-.28-.36-.28.59-.41.5-.66-.45-.35-.59-.7a1.45 1.45 0 0 0-.38-.52v-.05l-.03.03-.03-.03v.05c-.1.08-.29.27-.38.52-.14.35-.5.44-.59.7-.09.25.5.66.5.66s-.36.09-.36.28.41.35.41.35-1.81.54-1.81 1.33 2.08 1.14 2.08 1.14-.63.06-.63.41.36.44.36.44-1.06-.15-1.53.62h-1.36c-.48-.77-1.53-.62-1.53-.62s.36-.1.36-.44-.63-.41-.63-.41 2.08-.35 2.08-1.14-1.81-1.33-1.81-1.33.41-.16.41-.35-.36-.28-.36-.28.59-.41.5-.66-.45-.35-.59-.7a1.45 1.45 0 0 0-.38-.52v-.05l-.03.03-.03-.03v.05c-.1.08-.29.27-.38.52-.14.35-.5.44-.59.7-.09.25.5.66.5.66s-.36.09-.36.28.41.35.41.35-1.81.54-1.81 1.33 2.08 1.14 2.08 1.14-.63.06-.63.41.36.44.36.44-1.06-.15-1.53.62h-1.36c-.48-.77-1.54-.62-1.54-.62s.36-.1.36-.44-.63-.41-.63-.41 2.08-.35 2.08-1.14-1.81-1.33-1.81-1.33.41-.16.41-.35-.36-.28-.36-.28.59-.41.5-.66-.45-.35-.59-.7a1.45 1.45 0 0 0-.38-.52v-.05l-.03.03-.03-.03v.05c-.1.08-.29.27-.39.52-.13.35-.5.44-.59.7-.09.25.5.66.5.66s-.36.09-.36.28.41.35.41.35-1.81.54-1.81 1.33 2.08 1.14 2.08 1.14-.63.06-.63.41.36.44.36.44-1.06-.15-1.54.62h-.75s-.61-5.27 0-6.55-2.44 1.57-2.44 1.57-.81-.43-2.44-.85c-1.63-.43-1.02 2.13-1.02 2.13l1.42 1.28s-.81 6.12-.81 7.26-.61 4.41-.61 4.41-.61.85-2.85.85.61 1.28 1.42 2.28-.81 2.13-2.03 3.27 1.02 2.85-.61 3.27c-1.63.43-.81 2.99-.81 2.99s0 2.99-.61 3.56-.41 1-1.02 2.56c-.61 1.57 0 2.14-1.42 2.85s-1.42 1-2.64 2.7c-1.22 1.71.55 3.08.55 3.08l-1.63 4.18-1.09 1.71c-1.08 1.71.27 3.04-1.63 3.04s.54 4.74-2.71 6.07 0 .76 0 1.71-2.44 5.5-2.44 5.5-.81 1.52-1.63 1.52-1.36 3.04-1.36 4.55a2.91 2.91 0 0 0 1.08 2.28s-3.52 1.71-3.52 2.47 0 2.85-1.36 3.23-1.36 1.71-1.08 4.18c.27 2.47-.81 1.52-2.98 3.42s0 2.09 0 5.31-1.63.95-1.9 3.61c-.06.61-.15 1.1-.26 1.53l.06 30.89h-7.95c1.3-9.42 1.56-18.91 1.61-28.38h-.26V90.36l2.52-.39-3.63-2.54v-3.52l1.12-1.37v-1.17l-1.4-.39v-2.35H185.4v-3.82l3.06-1.7-2.76-.57v-1.48c0-.34.49-.79.49-.79l-.97-.45-.32-1.7-1.3-.45s-1.78-6.47-8.76-6.81c0 0 1.62-.68.16-.91l-3.55-.52v-.05s-.06 0-.17.02c-.11-.02-.17-.02-.17-.02v.05l-3.55.52c-1.46.23.16.91.16.91-6.97.34-8.76 6.81-8.76 6.81l-1.3.45-.32 1.7-.97.45s.49.45.49.79v1.48l-2.76.57 3.06 1.7v3.82h-5.02l-.44-3.93 1.3-1.47-.81-.79v-1.7l-3.24-1.59-.16-.68-.16-.91-1.14-.45s.89-6.19-5.92-9.42-12.48-4.48-12.48-4.48l.41-.57h-1.05l.33-.57h-1.22v-.45l-1.38.11-.16-.74-1.38.28s.32-.57-.97-.97l-1.3-.4s0-.96-.97-1.02c-.68-.04-1.28-.05-1.58-.06h-.2c-.3 0-.9.02-1.58.06-.97.06-.97 1.02-.97 1.02l-1.3.4c-1.3.4-.97.97-.97.97l-1.38-.28-.16.74-1.38-.11v.45h-1.22l.32.57h-1.05l.41.57s-5.67 1.25-12.48 4.48-5.92 9.42-5.92 9.42l-1.13.45-.16.91-.16.68-3.24 1.59v1.7l-.81.79 1.3 1.47-.44 3.93h-6.2v-3.82l3.06-1.7-2.76-.57v-1.48c0-.34.49-.79.49-.79l-.97-.45-.32-1.7-1.3-.45s-1.78-6.47-8.75-6.81c0 0 1.62-.68.16-.91l-3.55-.52v-.05s-.06 0-.17.02c-.11-.02-.17-.02-.17-.02v.05l-3.55.52c-1.46.23.16.91.16.91-6.97.34-8.76 6.81-8.76 6.81l-1.3.45-.33 1.7-.97.45s.49.45.49.79v1.48l-2.76.57 3.06 1.7v3.82H15.87v2.35l-1.4.39v1.17l1.12 1.37v3.52l-3.63 2.54 2.52.39v27.86H6.66v28.38h-27.64l6.06 392.77 1471.75-3.29 4.64-389.48h-20.42zM440.23 114.22l-5.31.6h-14.67V88.5c2.33-2.82 8.6-4.97 9.99-5.43 1.39.45 7.66 2.61 9.99 5.43v25.72zm200.95 4.05v.02h-21.51v-.02l-.23-28.43 1.33-1.24-1.11-2.33c2.03-4.91 8.36-5.31 10.43-5.3v.02s.12 0 .33-.01c.21 0 .33.01.33.01v-.02c2.07 0 8.4.39 10.43 5.3l-1.11 2.33 1.33 1.24-.22 28.43zm248.67-16.96h-.12l.12-1.03v1.03zm373 .08h-3.26v-2.33l.85-.17c.15-.02.56-.05.78-.06l.78.06c.2.02.85.17.85.17v2.33zm6.16-.03h-2.19v.03-2.33l.85-.17c.15-.02.56-.05.78-.06l.56.04v2.48zm37.15 0h-3.38v-2.29l.88-.17c.15-.02.58-.05.81-.06l.81.06c.21.02.88.17.88.17v2.29zm7.7 0h-3.38v-2.29l.88-.17c.15-.02.58-.05.81-.06l.8.06c.21.02.88.17.88.17v2.29zm10.89-22.64h-3.43v-2.44s.68-.14.9-.17a14.18 14.18 0 0 1 .82-.06l.82.06a12.78 12.78 0 0 1 .9.17v2.44zm8.19 0h-3.44v-2.44s.68-.14.9-.17a14.18 14.18 0 0 1 .82-.06l.82.06a12.78 12.78 0 0 1 .9.17v2.44zm8.19 0h-3.44v-2.44s.68-.14.9-.17c.16-.02.59-.05.82-.06l.82.06a12.78 12.78 0 0 1 .9.17v2.44zm8.19 0h-3.43v-2.44s.68-.14.9-.17a14.18 14.18 0 0 1 .82-.06l.82.06a12.78 12.78 0 0 1 .9.17v2.44zm8.19 0h-3.43v-2.44s.68-.14.9-.17a14.18 14.18 0 0 1 .82-.06l.82.06a12.78 12.78 0 0 1 .9.17v2.44zm8.19 0h-3.43v-2.44s.68-.14.9-.17a14.18 14.18 0 0 1 .82-.06l.82.06a12.78 12.78 0 0 1 .9.17v2.44zm13.2 22.64h-3.97v-2.29l1.04-.17c.18-.02.68-.05.95-.06l.95.06c.25.02 1.04.17 1.04.17v2.29zm9.04 0h-3.97v-2.29l1.04-.17c.18-.02.68-.05.95-.06l.95.06c.25.02 1.04.17 1.04.17v2.29z"/><g style="mix-blend-mode:multiply"><path fill="#97705e" d="M-46.48 318.58h1515.8v3.75H-46.48z"/><path fill="#805846" d="M-38.12 320.72h5.74v-.94h9.54v.94h5.73v-.94h9.54v.94h5.74v-.94h9.54v.94h5.73v-.94h9.54v.94h5.73v-.94h9.54v.94h5.74v-.94h9.54v.94h5.73v-.94h9.54v.94h5.73v-.94h9.54v.94h5.74v-.94h9.54v.94h5.73v-.94h9.54v.94h5.73v-.94h9.54v.94h5.74v-.94h9.54v.94h5.73v-.94h9.54v.94h5.73v-.94h9.54v.94h5.74v-.94h9.54v.94h5.73v-.94h9.54v.94h5.73v-.94h9.54v.94h5.74v-.94h9.54v.94h5.73v-.94h9.54v.94h5.73v-.94h9.54v.94h5.74v-.94h9.54v.94h5.73v-.94h9.54v.94h5.73v-.94h9.54v.94h5.74v-.94h9.54v.94h5.73v-.94h9.54v.94h5.74v-.94H359v.94h5.73v-.94h9.54v.94H380v-.94h9.54v.94h5.74v-.94h9.54v.94h5.73v-.94h9.54v.94h5.73v-.94h9.54v.94h5.74v-.94h9.54v.94h5.73v-.94h9.54v.94h5.73v-.94h9.54v.94h5.74v-.94h9.54v.94h5.73v-.94h9.54v.94h5.73v-.94H527v.94h5.74v-.94h9.54v.94h5.73v-.94h9.54v.94h5.73v-.94h9.54v.94h5.74v-.94h9.54v.94h5.73v-.94h9.54v.94h5.73v-.94h9.54v.94h5.74v-.94h9.54v.94h5.73v-.94h9.54v.94h5.73v-.94h9.54v.94h5.74v-.94h9.54v.94h5.73v-.94h9.54v.94h5.73v-.94h9.54v.94h5.74v-.94h9.54v.94h5.73v-.94h9.54v.94h5.74v-.94h9.53v.94h5.74v-.94h9.54v.94h5.73v-.94h9.54v.94h5.74v-.94h9.53v.94h5.74v-.94h9.54v.94h5.73v-.94h9.54v.94h5.74v-.94h9.54v.94h5.73v-.94h9.54v.94h5.73v-.94h9.54v.94h5.74v-.94h9.54v.94h5.73v-.94h9.54v.94h5.73v-.94h9.54v.94h5.74v-.94h9.54v.94h5.73v-.94h9.54v.94h5.73v-.94h9.54v.94h5.74v-.94h9.54v.94h5.73v-.94h9.54v.94h5.73v-.94h9.54v.94h5.74v-.94h9.54v.94h5.73v-.94h9.54v.94h5.73v-.94h9.54v.94h5.74v-.94h9.54v.94h5.73v-.94h9.54v.94h5.73v-.94h9.54v.94h5.74v-.94h9.54v.94h5.73v-.94h9.54v.94h5.73v-.94h9.54v.94h5.74v-.94h9.54v.94h5.73v-.94h9.54v.94h5.74v-.94h9.53v.94h5.74v-.94h9.54v.94h5.73v-.94h9.54v.94h5.74v-.94h9.54v.94h5.73v-.94h9.54v.94h5.73v-.94h9.54v.94h5.74v-.94h9.54v.94h5.73v-.94h9.54v.94h5.73v-.94h9.54v.94h5.74v-.94h9.54v.94h5.73v-.94h9.54v.94h5.73v-.94h9.54v.94h5.74v-.94h9.54v.94h5.73v-.94h9.54v.94h5.73v-.94h9.54v.94h5.74v-.94h9.54v.94h5.73v-.94h9.54v.94h5.73v-.94h9.54v.94h5.74v-.94h4.9v-1.1H-46.48v1.1h8.36v.94z"/></g><g fill="#607087"><path d="M1365.66 292.86h8.31v9.3h-8.31zm-360.63.26h8.12v8.87h-8.12zM407.3 314.26v1.42h.77v-.23h.27c.66 0 3.73-.03 6.15-.87a.99.99 0 0 0 .31.3v.06l-1.17 3.91h.58l.1-.35h4.37v-1.73h1.42v.18c0 .09.07.16.16.16h.21c.09 0 .16-.07.16-.16v-1.96h3.99v.04c0 2.39 1.81 4.32 4.05 4.32 1 0 1.92-.39 2.63-1.03l11.7-.03c.71.66 1.64 1.06 2.65 1.06 1.39 0 2.61-.74 3.34-1.87l6.32.02 2.35-1.16 2.41-1.16h2.25c.07 2.32 1.86 4.17 4.05 4.17s4.05-1.93 4.05-4.32v-.04h.77c.5 0 .9-.4.9-.9v-1.57l.82-1.07c.07-.06.03-.2-.06-.2h-.76v-.52h2.5v5.39h1.46v1.09a.37.37 0 0 0 .37.37h10.27a.37.37 0 0 0 .37-.37v-1.09h1.15v1.46h12.55v-1.46h1.07v-2.22h1.22v2.74h6.9v.2c0 .14.12.26.26.26s.26-.12.26-.26v-.08h2.98v.08c0 .14.12.26.26.26s.26-.12.26-.26v-6.11h2.41v.55h-.76c-.09 0-.13.13-.06.2l.82 1.07v1.56c0 .5.4.9.9.9h.77v.04c0 2.39 1.81 4.32 4.05 4.32s3.97-1.86 4.05-4.18h1.84l2.41 1.16 2.35 1.16 6.72-.02c.73 1.13 1.95 1.88 3.34 1.88a3.89 3.89 0 0 0 2.66-1.06l11.7.03c.71.65 1.63 1.04 2.63 1.04 2.24 0 4.05-1.93 4.05-4.32v-.04h5.69v2a.15.15 0 0 0 .1.14v1.34h4.55l.1.35h.61l-1.22-3.91v-.04l.09-.07h.22a.1.1 0 0 0 .1-.1v-.09c2.4.8 5.39.84 6.04.83h.27v.23h.77v-1.42h-.77v.26c-3.25-.04-5.03-1.59-5.71-2.33v-.33h3.98v-.26h1.77v-.17h.15v1.44h.57v-3.88h-.57v1.23h-.15v-.17h-.08v-.02h-1.69v.02-.26h-3.98v-.21l1.11-1.29h.23c.07 0 .13-.06.13-.13v-.36c0-.07-.06-.13-.13-.13h-.93v-1.09c0-.08-.07-.15-.15-.15h-.03v-1.82a.3.3 0 0 0 .23-.29v-.7a.3.3 0 0 0-.23-.29v-.95c0-.09-.08-.17-.17-.17h-.2c-.09 0-.17.08-.17.17v4.04h-.07c-.08 0-.15.07-.15.15v1.09h-.58v-13.32h.5c.14 0 .25-.11.25-.25s-.11-.25-.25-.25h-.5v-.38h.26a.2.2 0 0 0 .2-.2v-4.4h.07c.08 0 .14-.06.14-.14v-2.72c0-.08-.06-.14-.14-.14h-.07v-.98a.2.2 0 0 0-.2-.2h-.45v-.99l.25.21h.15s.04-.05.05-.09a2.68 2.68 0 0 1 .81.41v-.02c.09.13.21.2.34.2s.23-.07.33-.19c.09.11.21.18.34.18.31 0 .57-.46.57-1.03s-.25-1.03-.57-1.03c-.13 0-.24.07-.34.2-.09-.13-.21-.2-.33-.2s-.24.08-.34.21c-.21.18-.49.31-.81.41-.01-.03-.03-.06-.05-.09h-.15l-.26.21-.16.03a.571.571 0 0 0-.1-.25h-.15l-.32.26h-.11v.06l-.09.04-.36.03c-.12 0-.24-.02-.36-.03l-.09-.04v-.06h-.11l-.32-.26h-.15c-.04.06-.08.15-.1.25l-.16-.03-.26-.21h-.15s-.04.05-.05.09a2.68 2.68 0 0 1-.81-.41c-.09-.13-.21-.21-.34-.21s-.24.08-.33.2c-.09-.13-.21-.2-.34-.2-.31 0-.57.46-.57 1.03s.25 1.03.57 1.03c.13 0 .24-.07.34-.2.09.12.2.19.33.19s.24-.08.34-.2v.02c.21-.18.49-.31.81-.41.01.03.03.06.05.09h.15l.25-.21v.99h-6.12v-.76a.54.54 0 0 0-.54-.54h-6.9a.54.54 0 0 0-.54.54v.76h-20.3v-.04c0-.17-.22-.31-.48-.31h-13.36c-.27 0-.48.14-.48.31v.04h-64.59v-.61h.48a.19.19 0 0 0 .19-.19v-.16a.19.19 0 0 0-.19-.19h-4.48a.19.19 0 0 0-.19.19v.16a.19.19 0 0 0 .19.19h.57v.26h-7.59c-.19 0-.34.14-.34.31v.04H443v-.95h-3.43v.95h-16.09v-.75a.2.2 0 0 0-.2-.2h-1.11v-.1c0-.09-.07-.17-.17-.17h-.45c-.09 0-.17.07-.17.17v.1h-1.14a.2.2 0 0 0-.2.2v.75h-3.65a.2.2 0 0 0-.2.2v.87c-.07 0-.12.06-.12.13v.13h-.58a.18.18 0 0 0-.18.18v1.28a.18.18 0 0 0 .18.18h.3v.7c0 .08.06.14.14.14h.14v.31c0 .07.05.12.12.13v1.89h-.03v.81h.03v1.62a.2.2 0 0 0 .2.2h.21v14.14h-.71v-1.09c0-.08-.07-.15-.15-.15h-.07v-4.04c0-.09-.08-.17-.17-.17h-.2c-.09 0-.17.08-.17.17v.95a.3.3 0 0 0-.23.29v.7a.3.3 0 0 0 .23.29v1.82h-.03c-.08 0-.15.07-.15.15v1.09h-.93c-.07 0-.13.06-.13.13v.36c0 .07.06.13.13.13h.23l.54.63a.61.61 0 0 0-.16.12h-.54v-.02h-.23v.02h-.08v.78h-3.98v.26-.02h-1.69v.02h-.08v.17h-.15v-1.23h-.57v3.88h.57v-1.44h.15v.17h1.77v.26h3.98v.33c-.67.75-2.45 2.29-5.71 2.33v-.26h-.77zm106.14 1.98h-2.46v-2.28h2.46v2.28zm-29.45-5.49h25.95-6.9v.1h-1.22v-.1H484zm-65.31 5.49V315h1.42v1.24h-1.42z"/><path d="M581.15 309.13V313.25h.51v-1.37h1v.28h1.71v.57h.28v.16h.18v-.16h.29c-.51.72-1.46 1.39-3.24 1.46v-.3h-.73v1.69h.73v-.27c.83 0 4.78-.13 6.34-2.58h2.8v.47h.29v-.47h.83v.47h.29v-.47h.12v.34h.35l-.03 3.61h.15c.39 1.54 1.94 2.68 3.8 2.68s3.36-1.11 3.78-2.62l10.26.09c.45 1.46 1.96 2.53 3.76 2.53s3.26-1.04 3.73-2.46h.1v-.41c.03-.19.05-.38.05-.57 0-.18-.02-.35-.04-.52l.02-2.11h.31v-.27h18.1v2.12h.04v.41c0 .32.24.6.57.68v.18h.4v-.15h4.87v.15h.44v-.15h.29c.44 0 .79-.32.79-.71v-.16h1.29v.21c0 .31.27.57.6.59v.11h.48v-.11h2.98v.15h.48v-.15h.91c.36 0 .66-.27.66-.59v-.46h2.9v1.91c0 .39.35.71.79.71h.35v.2h.48v-.2h23.39v.2h.48v-.2h.71c.44 0 .79-.32.79-.71v-1.91h1.47v1.03c0 .37.33.67.75.67h.05v.11h.49v-.11h5.09v.08h.47v-.08h.63c.41 0 .75-.3.75-.67v-.28h1.5v.19c0 .42.38.76.84.76h.07v.12h.51v-.12h8.46v.13h.52v-.13h.66c.46 0 .84-.34.84-.76v-3.07h19.47v.06h.35l-.03 3.61h.15c.39 1.54 1.94 2.68 3.8 2.68s3.36-1.11 3.78-2.62l10.26.09c.45 1.46 1.96 2.53 3.76 2.53s3.26-1.04 3.73-2.46h.1v-.41c.04-.19.05-.38.05-.57a4.38 4.38 0 0 0-.04-.52l.02-2.11h.31v-.61h.04v1.16h.29v-1.16h.83v1.16h.29v-1.16h3.01a3.6 3.6 0 0 0 .6.74v.42h.29v-.15c1.79 1.5 4.58 1.6 5.26 1.6v.28h.72v-1.76H761v.31c-1.47-.09-2.33-.64-2.85-1.27h.06v-.16h.28v-.57h1.71v-.28h1v1.37h.51V309.09h-.51v1.08h-.99v-.25h-1.71v-2.29h.23v1.51h.51l2.47-1.37-.02-1.66-.24-15.01c-.24-1.91-.95-3.2-1.48-3.17-.53.02-1.12 1.33-1.24 3.16v-.04h-.28v-3.51c0-1.12-1.23-2.02-2.74-2.02H586.6c-1.51 0-2.74.91-2.74 2.02v22.43h-1.24v.25h-.99v-1.08h-.51zm176.93 3.57zm-21.87-12.26h-2.95c-.69 0-1.25-.41-1.25-.92v-3.56c0-.51.56-.92 1.25-.92h2.95c.69 0 1.25.41 1.25.92v3.56c0 .51-.56.92-1.25.92zm-7.86-.02h-2.95c-.69 0-1.25-.41-1.25-.92v-3.56c0-.51.56-.93 1.25-.93h2.95c.69 0 1.25.41 1.25.93v3.56c0 .51-.56.92-1.25.92zm-7.93-.02h-2.95c-.69 0-1.25-.41-1.25-.92v-3.56c0-.51.56-.93 1.25-.93h2.95c.69 0 1.25.41 1.25.93v3.56c0 .51-.56.92-1.25.92zm-7.86.02h-2.95c-.69 0-1.25-.41-1.25-.92v-3.56c0-.51.56-.93 1.25-.93h2.95c.69 0 1.25.41 1.25.93v3.56c0 .51-.56.92-1.25.92zm-7.87-.04h-2.95c-.69 0-1.25-.41-1.25-.93v-3.56c0-.51.56-.92 1.25-.92h2.95c.69 0 1.25.41 1.25.92v3.56c0 .51-.56.93-1.25.93zm-8.02.06h-2.95c-.69 0-1.25-.41-1.25-.92v-3.56c0-.51.56-.92 1.25-.92h2.95c.69 0 1.25.41 1.25.92v3.56c0 .51-.56.92-1.25.92zm-8.04-.02h-2.95c-.69 0-1.25-.41-1.25-.92v-3.56c0-.51.56-.93 1.25-.93h2.95c.69 0 1.25.41 1.25.93v3.56c0 .51-.56.92-1.25.92zm-7.67 0h-2.95c-.69 0-1.25-.41-1.25-.92v-3.56c0-.51.56-.93 1.25-.93h2.95c.69 0 1.25.41 1.25.93v3.56c0 .51-.56.92-1.25.92zm-7.92 0h-2.95c-.69 0-1.25-.41-1.25-.92v-3.56c0-.51.56-.93 1.25-.93h2.95c.69 0 1.25.41 1.25.93v3.56c0 .51-.56.92-1.25.92zm-8.19.03h-2.95c-.69 0-1.25-.41-1.25-.92v-3.56c0-.51.56-.93 1.25-.93h2.95c.69 0 1.25.41 1.25.93v3.56c0 .51-.56.92-1.25.92zm-7.86 0h-2.95c-.69 0-1.25-.41-1.25-.92v-3.56c0-.51.56-.93 1.25-.93h2.95c.69 0 1.25.41 1.25.93v3.56c0 .51-.56.92-1.25.92zm-7.92 0h-2.95c-.69 0-1.25-.41-1.25-.92v-3.56c0-.51.56-.93 1.25-.93h2.95c.69 0 1.25.41 1.25.93v3.56c0 .51-.56.92-1.25.92zm-7.86 0h-2.95c-.69 0-1.25-.41-1.25-.92v-3.56c0-.51.56-.93 1.25-.93h2.95c.69 0 1.25.41 1.25.93v3.56c0 .51-.56.92-1.25.92zm-7.87 0h-2.95c-.69 0-1.25-.41-1.25-.92v-3.56c0-.51.56-.93 1.25-.93h2.95c.69 0 1.25.41 1.25.93v3.56c0 .51-.56.92-1.25.92zm-8.02 0h-2.95c-.69 0-1.25-.41-1.25-.92v-3.56c0-.51.56-.93 1.25-.93h2.95c.69 0 1.25.41 1.25.93v3.56c0 .51-.56.92-1.25.92zm-8.04 0h-2.95c-.69 0-1.25-.41-1.25-.92v-3.56c0-.51.56-.93 1.25-.93h2.95c.69 0 1.25.41 1.25.93v3.56c0 .51-.56.92-1.25.92zm-7.66.01h-2.95c-.69 0-1.25-.41-1.25-.92v-3.56c0-.51.56-.93 1.25-.93h2.95c.69 0 1.25.41 1.25.93v3.56c0 .51-.56.92-1.25.92zm147.12 12.24h.07c.36.6.86 1.02 1.39 1.32-.64-.29-1.12-.66-1.47-1.05v-.28zm-170.53.03h.45c-.45.6-1.18 1.2-2.38 1.56.74-.3 1.46-.78 1.93-1.56zM406.03 313.75v1.42h.77v-.23h.27c.66 0 3.73-.03 6.15-.87a.99.99 0 0 0 .31.3v.06l-1.17 3.91h.58l.1-.35h4.37v-1.73h1.42v.18c0 .09.07.16.16.16h.21c.09 0 .16-.07.16-.16v-1.96h3.99v.04c0 2.39 1.81 4.32 4.05 4.32 1 0 1.92-.39 2.63-1.03l11.7-.03c.71.66 1.64 1.06 2.65 1.06 1.39 0 2.61-.74 3.34-1.87l6.32.02 2.35-1.16 2.41-1.16h2.25c.07 2.32 1.86 4.17 4.05 4.17s4.05-1.93 4.05-4.32v-.04h.77c.5 0 .9-.4.9-.9v-1.57l.82-1.07c.07-.06.03-.2-.06-.2h-.76v-.52h2.5v5.39h1.46v1.09a.37.37 0 0 0 .37.37h10.27a.37.37 0 0 0 .37-.37v-1.09h1.15v1.46h12.55v-1.46h1.07v-2.22h1.22v2.74h6.9v.2c0 .14.12.26.26.26s.26-.12.26-.26v-.08h2.98v.08c0 .14.12.26.26.26s.26-.12.26-.26v-6.11h2.41v.55h-.76c-.09 0-.13.13-.06.2l.82 1.07v1.56c0 .5.4.9.9.9h.77v.04c0 2.39 1.81 4.32 4.05 4.32s3.97-1.86 4.05-4.18h1.84l2.41 1.16 2.35 1.16 6.72-.02c.73 1.13 1.95 1.88 3.34 1.88a3.89 3.89 0 0 0 2.66-1.06l11.7.03c.71.65 1.63 1.04 2.63 1.04 2.24 0 4.05-1.93 4.05-4.32v-.04h5.69v2a.15.15 0 0 0 .1.14v1.34h4.55l.1.35h.61l-1.22-3.91v-.04l.09-.07h.22a.1.1 0 0 0 .1-.1v-.09c2.4.8 5.39.84 6.04.83h.27v.23h.77v-1.42h-.77v.26c-3.25-.04-5.03-1.59-5.71-2.33v-.33h3.98v-.26h1.77v-.17h.15v1.44h.57v-3.88h-.57v1.23h-.15v-.17h-.08v-.02h-1.69v.02-.26h-3.98v-.21l1.11-1.29h.23c.07 0 .13-.06.13-.13v-.36c0-.07-.06-.13-.13-.13h-.93v-1.09c0-.08-.07-.15-.15-.15h-.03v-1.82a.3.3 0 0 0 .23-.29v-.7a.3.3 0 0 0-.23-.29v-.95c0-.09-.08-.17-.17-.17h-.2c-.09 0-.17.08-.17.17v4.04h-.07c-.08 0-.15.07-.15.15v1.09h-.58v-13.32h.5c.14 0 .25-.11.25-.25s-.11-.25-.25-.25h-.5v-.38h.26a.2.2 0 0 0 .2-.2v-4.4h.07c.08 0 .14-.06.14-.14v-2.72c0-.08-.06-.14-.14-.14h-.07v-.98a.2.2 0 0 0-.2-.2h-.45v-.99l.25.21h.15s.04-.05.05-.09a2.68 2.68 0 0 1 .81.41v-.02c.09.13.21.2.34.2s.23-.07.33-.19c.09.11.21.18.34.18.31 0 .57-.46.57-1.03s-.25-1.03-.57-1.03c-.13 0-.24.07-.34.2-.09-.13-.21-.2-.33-.2s-.24.08-.34.21c-.21.18-.49.31-.81.41-.01-.03-.03-.06-.05-.09h-.15l-.26.21-.16.03a.571.571 0 0 0-.1-.25h-.15l-.32.26h-.11v.06l-.09.04-.36.03c-.12 0-.24-.02-.36-.03l-.09-.04v-.06h-.11l-.32-.26h-.15c-.04.06-.08.15-.1.25l-.16-.03-.26-.21h-.15s-.04.05-.05.09a2.68 2.68 0 0 1-.81-.41c-.09-.13-.21-.21-.34-.21s-.24.08-.33.2c-.09-.13-.21-.2-.34-.2-.31 0-.57.46-.57 1.03s.25 1.03.57 1.03c.13 0 .24-.07.34-.2.09.12.2.19.33.19s.24-.08.34-.2v.02c.21-.18.49-.31.81-.41.01.03.03.06.05.09h.15l.25-.21v.99h-6.12v-.76a.54.54 0 0 0-.54-.54h-6.9a.54.54 0 0 0-.54.54v.76h-20.3v-.04c0-.17-.22-.31-.48-.31h-13.36c-.27 0-.48.14-.48.31v.04h-64.59v-.61h.48a.19.19 0 0 0 .19-.19v-.16a.19.19 0 0 0-.19-.19h-4.48a.19.19 0 0 0-.19.19v.16a.19.19 0 0 0 .19.19h.57v.26h-7.59c-.19 0-.34.14-.34.31v.04h-3.12v-.95h-3.43v.95h-16.09v-.75a.2.2 0 0 0-.2-.2h-1.11v-.1c0-.09-.07-.17-.17-.17h-.45c-.09 0-.17.07-.17.17v.1h-1.14a.2.2 0 0 0-.2.2v.75h-3.65a.2.2 0 0 0-.2.2v.87c-.07 0-.12.06-.12.13v.13h-.58a.18.18 0 0 0-.18.18v1.28a.18.18 0 0 0 .18.18h.3v.7c0 .08.06.14.14.14h.14v.31c0 .07.05.12.12.13v1.89h-.03v.81h.03v1.62a.2.2 0 0 0 .2.2h.21v14.14h-.71v-1.09c0-.08-.07-.15-.15-.15h-.07v-4.04c0-.09-.08-.17-.17-.17h-.2c-.09 0-.17.08-.17.17v.95a.3.3 0 0 0-.23.29v.7a.3.3 0 0 0 .23.29v1.82h-.03c-.08 0-.15.07-.15.15v1.09h-.93c-.07 0-.13.06-.13.13v.36c0 .07.06.13.13.13h.23l.54.63a.61.61 0 0 0-.16.12h-.54v-.02h-.23v.02h-.08v.78h-3.98v.26-.02h-1.69v.02h-.08v.17h-.15v-1.23h-.57v3.88h.57v-1.44h.15v.17h1.77v.26h3.98v.33c-.67.75-2.45 2.29-5.71 2.33v-.26h-.77zm106.14 1.98h-2.46v-2.28h2.46v2.28zm-29.45-5.49h25.95-6.9v.1h-1.22v-.1h-17.82zm-65.31 5.49v-1.24h1.42v1.24h-1.42z"/><path d="M572.54 284.21H415.11a.2.2 0 0 0-.2.2v3.51H572.74v-3.51a.2.2 0 0 0-.2-.2zm369.85 24.87-.44.01h-.06v1.08h-.99v-.25h-1.71v-2.29h.23v1.51h.51l2.24-1.42-.07-16.63c-.24-1.9-.91-3.19-1.44-3.17-.52.02-1.1 1.32-1.24 3.16v-.04h-.28v-3.51c0-.2-.05-.4-.13-.58h.89c0-1.12-1.21-2.01-2.69-2.01h-1.71c-1.79-.66-3.45-.28-4.26 0h-8.21c-1.79-.66-3.45-.28-4.26 0h-6.58c-1.79-.66-3.45-.28-4.26 0h-6.5c-1.79-.66-3.45-.28-4.26 0h-10.75c-1.79-.66-3.45-.28-4.26 0h-11.79c-1.79-.66-3.45-.28-4.26 0h-9.93c-1.79-.66-3.45-.28-4.26 0h-11.96c-1.79-.66-3.45-.28-4.26 0h-9.69c-1.79-.66-3.45-.28-4.26 0h-9.77c-1.79-.66-3.45-.28-4.26 0h-7.3c-1.79-.66-3.45-.28-4.26 0h-8.04c-1.79-.66-3.45-.28-4.26 0h-7.32c-1.79-.66-3.45-.28-4.26 0h-4.25c-.57 0-1.1.13-1.53.35-.23.12-.44.26-.61.43-.05.05-.07.1-.12.15-.72.36-1.2.98-1.2 1.67v3.56h-.29v.04c-.1-1.84-.7-3.14-1.24-3.16s-1.27 1.24-1.5 3.13l.26 15.98v.7l1.97 1.42h.51v-1.51h.29v2.29h-1.24v.25h-.99v-1.08h-.51V313.28h.51v-1.37h1v.28h1.71v.57h.28v.16h.18v-.16h.29c-.51.72-1.46 1.39-3.24 1.46v-.3h-.73v1.69h.73v-.27c.83 0 4.78-.13 6.34-2.58h2.8v.47h.29v-.47h.83v.47h.29v-.47h.12v.34h.35l-.03 3.61h.15c.39 1.54 1.94 2.68 3.8 2.68s3.36-1.11 3.78-2.62l10.26.09c.45 1.46 1.96 2.53 3.76 2.53s3.26-1.04 3.73-2.46h.1v-.41c.03-.19.05-.38.05-.57 0-.18-.02-.35-.04-.52l.02-2.11h.31v-.27h18.1v2.12h.04v.41c0 .32.24.6.57.68v.18h.4v-.15h4.87v.15h.44v-.15h.29c.44 0 .79-.32.79-.71v-.16h1.29v.21c0 .31.27.57.6.59v.11h.48v-.11h2.98v.15h.48v-.15h.91c.36 0 .66-.27.66-.59v-.46h2.9v1.91c0 .39.35.71.79.71h.35v.2h.48v-.2h23.39v.2h.48v-.2h.71c.44 0 .79-.32.79-.71v-1.91h1.47v1.03c0 .37.33.67.75.67h.05v.11h.49v-.11h5.09v.08h.47v-.08h.63c.41 0 .75-.3.75-.67v-.28h1.5v.19c0 .42.38.76.84.76h.07v.12h.51v-.12h8.46v.13h.52v-.13h.66c.46 0 .84-.34.84-.76v-3.07h19.47v.06h.35l-.03 3.61h.15c.39 1.54 1.94 2.68 3.8 2.68s3.36-1.11 3.78-2.62l10.26.09c.45 1.46 1.96 2.53 3.76 2.53s3.26-1.04 3.73-2.46h.1v-.41c.04-.19.05-.38.05-.57 0-.18-.02-.35-.04-.52l.02-2.11h.31v-.61h.04v1.16h.29v-1.16h.83v1.16h.29v-1.16h3.01a3.6 3.6 0 0 0 .6.74v.42h.29v-.15c1.79 1.5 4.58 1.6 5.26 1.6v.28h.72v-1.76h-.72v.31c-1.47-.09-2.33-.64-2.85-1.27h.06v-.16h.28v-.57h1.71v-.28h1v1.37h.51v-.02l-.01-4.11zm-3.67 3.62zm-173.77 1.59c.74-.3 1.46-.78 1.93-1.56h.45c-.45.6-1.18 1.2-2.38 1.56zm26.59-14.75c0 .51-.56.92-1.25.92h-2.95c-.69 0-1.25-.41-1.25-.92v-3.56c0-.51.56-.93 1.25-.93h2.95c.69 0 1.25.41 1.25.93v3.56zm7.66-.01c0 .51-.56.92-1.25.92H795c-.69 0-1.25-.41-1.25-.92v-3.56c0-.51.56-.93 1.25-.93h2.95c.69 0 1.25.41 1.25.93v3.56zm8.04 0c0 .51-.56.92-1.25.92h-2.95c-.69 0-1.25-.41-1.25-.92v-3.56c0-.51.56-.93 1.25-.93h2.95c.69 0 1.25.41 1.25.93v3.56zm8.02 0c0 .51-.56.92-1.25.92h-2.95c-.69 0-1.25-.41-1.25-.92v-3.56c0-.51.56-.93 1.25-.93h2.95c.69 0 1.25.41 1.25.93v3.56zm7.87 0c0 .51-.56.92-1.25.92h-2.95c-.69 0-1.25-.41-1.25-.92v-3.56c0-.51.56-.93 1.25-.93h2.95c.69 0 1.25.41 1.25.93v3.56zm7.86 0c0 .51-.56.92-1.25.92h-2.95c-.69 0-1.25-.41-1.25-.92v-3.56c0-.51.56-.93 1.25-.93h2.95c.69 0 1.25.41 1.25.93v3.56zm7.92 0c0 .51-.56.92-1.25.92h-2.95c-.69 0-1.25-.41-1.25-.92v-3.56c0-.51.56-.93 1.25-.93h2.95c.69 0 1.25.41 1.25.93v3.56zm7.86 0c0 .51-.56.92-1.25.92h-2.95c-.69 0-1.25-.41-1.25-.92v-3.56c0-.51.56-.93 1.25-.93h2.95c.69 0 1.25.41 1.25.93v3.56zm8.19-.03c0 .51-.56.92-1.25.92h-2.95c-.69 0-1.25-.41-1.25-.92v-3.56c0-.51.56-.93 1.25-.93h2.95c.69 0 1.25.41 1.25.93v3.56zm7.92 0c0 .51-.56.92-1.25.92h-2.95c-.69 0-1.25-.41-1.25-.92v-3.56c0-.51.56-.93 1.25-.93h2.95c.69 0 1.25.41 1.25.93v3.56zm7.67 0c0 .51-.56.92-1.25.92h-2.95c-.69 0-1.25-.41-1.25-.92v-3.56c0-.51.56-.93 1.25-.93h2.95c.69 0 1.25.41 1.25.93v3.56zm8.04.02c0 .51-.56.92-1.25.92h-2.95c-.69 0-1.25-.41-1.25-.92v-3.56c0-.51.56-.92 1.25-.92h2.95c.69 0 1.25.41 1.25.92v3.56zm8.02-.06c0 .51-.56.93-1.25.93h-2.95c-.69 0-1.25-.41-1.25-.93v-3.56c0-.51.56-.92 1.25-.92h2.95c.69 0 1.25.41 1.25.92v3.56zm7.87.04c0 .51-.56.92-1.25.92h-2.95c-.69 0-1.25-.41-1.25-.92v-3.56c0-.51.56-.93 1.25-.93h2.95c.69 0 1.25.41 1.25.93v3.56zm7.86-.02c0 .51-.56.92-1.25.92h-2.95c-.69 0-1.25-.41-1.25-.92v-3.56c0-.51.56-.93 1.25-.93h2.95c.69 0 1.25.41 1.25.93v3.56zm7.93.02c0 .51-.56.92-1.25.92h-2.95c-.69 0-1.25-.41-1.25-.92v-3.56c0-.51.56-.93 1.25-.93h2.95c.69 0 1.25.41 1.25.93v3.56zm7.86.02c0 .51-.56.92-1.25.92h-2.95c-.69 0-1.25-.41-1.25-.92v-3.56c0-.51.56-.92 1.25-.92h2.95c.69 0 1.25.41 1.25.92v3.56zm20.77 14.5c-.64-.29-1.12-.66-1.47-1.05v-.28h.07c.36.6.86 1.02 1.39 1.32z"/><path d="M1122.93 309.08c-.13 0-.26.01-.39.02h-.06v1.08h-.99v-.25h-1.71v-2.29h.23v1.51h.51l2.19-1.42-.07-16.63c-.23-1.89-.87-3.19-1.39-3.17-.51.01-1.09 1.32-1.24 3.16v-.04h-.28v-3.51c0-.2-.05-.4-.13-.58h.89c0-1.12-1.21-2.01-2.69-2.01h-1.71c-1.79-.66-3.45-.28-4.26 0h-8.21c-1.79-.66-3.45-.28-4.26 0h-6.58c-1.79-.66-3.45-.28-4.26 0h-6.5c-1.79-.66-3.45-.28-4.26 0h-10.75c-1.79-.66-3.45-.28-4.26 0h-11.79c-1.79-.66-3.45-.28-4.26 0h-9.93c-1.79-.66-3.45-.28-4.26 0h-11.96c-1.79-.66-3.45-.28-4.26 0h-9.69c-1.79-.66-3.45-.28-4.26 0h-9.77c-1.79-.66-3.45-.28-4.26 0h-7.3c-1.79-.66-3.45-.28-4.26 0h-8.04c-1.79-.66-3.45-.28-4.26 0h-7.32c-1.79-.66-3.45-.28-4.26 0h-4.25c-.57 0-1.1.13-1.53.35-.23.12-.44.26-.61.43-.05.05-.07.1-.12.15-.72.36-1.2.98-1.2 1.67v3.56h-.29v.04c-.1-1.84-.7-3.14-1.24-3.16s-1.27 1.24-1.5 3.13l.07 16.63 2.16 1.46h.51v-1.51h.29v2.29h-1.24v.25h-.99v-1.08h-.51V313.28h.51v-1.37h1v.28h1.71v.57h.28v.16h.18v-.16h.29c-.51.72-1.46 1.39-3.24 1.46v-.3h-.73v1.69h.73v-.27c.83 0 4.78-.13 6.34-2.58h2.8v.47h.29v-.47h.83v.47h.29v-.47h.12v.34h.35l-.03 3.61h.15c.39 1.54 1.94 2.68 3.8 2.68s3.36-1.11 3.78-2.62l10.26.09c.45 1.46 1.96 2.53 3.76 2.53s3.26-1.04 3.73-2.46h.1v-.41c.03-.19.05-.38.05-.57 0-.18-.02-.35-.04-.52l.02-2.11h.31v-.27h18.1v2.12h.04v.41c0 .32.24.6.57.68v.18h.4v-.15h4.87v.15h.44v-.15h.29c.44 0 .79-.32.79-.71v-.16h1.29v.21c0 .31.27.57.6.59v.11h.48v-.11h2.98v.15h.48v-.15h.91c.36 0 .66-.27.66-.59v-.46h2.9v1.91c0 .39.35.71.79.71h.35v.2h.48v-.2h23.39v.2h.48v-.2h.71c.44 0 .79-.32.79-.71v-1.91h1.47v1.03c0 .37.33.67.75.67h.05v.11h.49v-.11h5.09v.08h.47v-.08h.63c.41 0 .75-.3.75-.67v-.28h1.5v.19c0 .42.38.76.84.76h.07v.12h.51v-.12h8.46v.13h.52v-.13h.66c.46 0 .84-.34.84-.76v-3.07h19.47v.06h.35l-.03 3.61h.15c.39 1.54 1.94 2.68 3.8 2.68s3.36-1.11 3.78-2.62l10.26.09c.45 1.46 1.96 2.53 3.76 2.53s3.26-1.04 3.73-2.46h.1v-.41c.04-.19.05-.38.05-.57 0-.18-.02-.35-.04-.52l.02-2.11h.31v-.61h.04v1.16h.29v-1.16h.83v1.16h.29v-1.16h3.01a3.6 3.6 0 0 0 .6.74v.42h.29v-.15c1.79 1.5 4.58 1.6 5.26 1.6v.28h.72v-1.76h-.72v.31c-1.47-.09-2.33-.64-2.85-1.27h.06v-.16h.28v-.57h1.71v-.28h1v1.37h.51v-.02l-.06-4.11zm-3.62 3.62zm-173.77 1.59c.74-.3 1.46-.78 1.93-1.56h.45c-.45.6-1.18 1.2-2.38 1.56zm26.59-14.75c0 .51-.56.92-1.25.92h-2.95c-.69 0-1.25-.41-1.25-.92v-3.56c0-.51.56-.93 1.25-.93h2.95c.69 0 1.25.41 1.25.93v3.56zm7.66-.01c0 .51-.56.92-1.25.92h-2.95c-.69 0-1.25-.41-1.25-.92v-3.56c0-.51.56-.93 1.25-.93h2.95c.69 0 1.25.41 1.25.93v3.56zm8.04 0c0 .51-.56.92-1.25.92h-2.95c-.69 0-1.25-.41-1.25-.92v-3.56c0-.51.56-.93 1.25-.93h2.95c.69 0 1.25.41 1.25.93v3.56zm8.02 0c0 .51-.56.92-1.25.92h-2.95c-.69 0-1.25-.41-1.25-.92v-3.56c0-.51.56-.93 1.25-.93h2.95c.69 0 1.25.41 1.25.93v3.56zm7.87 0c0 .51-.56.92-1.25.92h-2.95c-.69 0-1.25-.41-1.25-.92v-3.56c0-.51.56-.93 1.25-.93h2.95c.69 0 1.25.41 1.25.93v3.56zm7.86 0c0 .51-.56.92-1.25.92h-2.95c-.69 0-1.25-.41-1.25-.92v-3.56c0-.51.56-.93 1.25-.93h2.95c.69 0 1.25.41 1.25.93v3.56zm7.92 0c0 .51-.56.92-1.25.92h-2.95c-.69 0-1.25-.41-1.25-.92v-3.56c0-.51.56-.93 1.25-.93h2.95c.69 0 1.25.41 1.25.93v3.56zm7.86 0c0 .51-.56.92-1.25.92h-2.95c-.69 0-1.25-.41-1.25-.92v-3.56c0-.51.56-.93 1.25-.93h2.95c.69 0 1.25.41 1.25.93v3.56zm8.19-.03c0 .51-.56.92-1.25.92h-2.95c-.69 0-1.25-.41-1.25-.92v-3.56c0-.51.56-.93 1.25-.93h2.95c.69 0 1.25.41 1.25.93v3.56zm7.92 0c0 .51-.56.92-1.25.92h-2.95c-.69 0-1.25-.41-1.25-.92v-3.56c0-.51.56-.93 1.25-.93h2.95c.69 0 1.25.41 1.25.93v3.56zm7.67 0c0 .51-.56.92-1.25.92h-2.95c-.69 0-1.25-.41-1.25-.92v-3.56c0-.51.56-.93 1.25-.93h2.95c.69 0 1.25.41 1.25.93v3.56zm8.04.02c0 .51-.56.92-1.25.92h-2.95c-.69 0-1.25-.41-1.25-.92v-3.56c0-.51.56-.92 1.25-.92h2.95c.69 0 1.25.41 1.25.92v3.56zm8.02-.06c0 .51-.56.93-1.25.93H1063c-.69 0-1.25-.41-1.25-.93v-3.56c0-.51.56-.92 1.25-.92h2.95c.69 0 1.25.41 1.25.92v3.56zm7.87.04c0 .51-.56.92-1.25.92h-2.95c-.69 0-1.25-.41-1.25-.92v-3.56c0-.51.56-.93 1.25-.93h2.95c.69 0 1.25.41 1.25.93v3.56zm7.86-.02c0 .51-.56.92-1.25.92h-2.95c-.69 0-1.25-.41-1.25-.92v-3.56c0-.51.56-.93 1.25-.93h2.95c.69 0 1.25.41 1.25.93v3.56zm7.93.02c0 .51-.56.92-1.25.92h-2.95c-.69 0-1.25-.41-1.25-.92v-3.56c0-.51.56-.93 1.25-.93h2.95c.69 0 1.25.41 1.25.93v3.56zm7.86.02c0 .51-.56.92-1.25.92h-2.95c-.69 0-1.25-.41-1.25-.92v-3.56c0-.51.56-.92 1.25-.92h2.95c.69 0 1.25.41 1.25.92v3.56zm20.77 14.5c-.64-.29-1.12-.66-1.47-1.05v-.28h.07c.36.6.86 1.02 1.39 1.32z"/><path d="m1303.53 309.08-.46.02h-.06v1.08h-.99v-.25h-1.71v-2.29h.23v1.51h.51l2.26-1.69v-.82l-.07-15.52c-.25-1.92-.93-3.22-1.46-3.2-.52.02-1.1 1.33-1.24 3.16v-.04h-.28v-3.51c0-.2-.05-.4-.13-.58h.89c0-1.12-1.21-2.01-2.69-2.01h-1.71c-1.79-.66-3.45-.28-4.26 0h-8.21c-1.79-.66-3.45-.28-4.26 0h-6.58c-1.79-.66-3.45-.28-4.26 0h-6.5c-1.79-.66-3.45-.28-4.26 0h-10.75c-1.79-.66-3.45-.28-4.26 0h-11.79c-1.79-.66-3.45-.28-4.26 0h-9.93c-1.79-.66-3.45-.28-4.26 0h-11.96c-1.79-.66-3.45-.28-4.26 0h-9.69c-1.79-.66-3.45-.28-4.26 0h-9.77c-1.79-.66-3.45-.28-4.26 0h-7.3c-1.79-.66-3.45-.28-4.26 0h-8.04c-1.79-.66-3.45-.28-4.26 0h-7.32c-1.79-.66-3.45-.28-4.26 0h-4.25c-.57 0-1.1.13-1.53.35-.23.12-.44.26-.61.43-.05.05-.07.1-.12.15-.72.36-1.2.98-1.2 1.67v3.56h-.29v.04c-.1-1.84-.7-3.14-1.24-3.16s-1.27 1.24-1.5 3.13l.07 16.63 2.16 1.46h.51v-1.51h.29v2.29h-1.24v.25h-.99v-1.08h-.51V313.27h.51v-1.37h1v.28h1.71v.57h.28v.16h.18v-.16h.29c-.51.72-1.46 1.39-3.24 1.46v-.3h-.73v1.69h.73v-.27c.83 0 4.78-.13 6.34-2.58h2.8v.47h.29v-.47h.83v.47h.29v-.47h.12v.34h.35l-.03 3.61h.15c.39 1.54 1.94 2.68 3.8 2.68s3.36-1.11 3.78-2.62l10.26.09c.45 1.46 1.96 2.53 3.76 2.53s3.26-1.04 3.73-2.46h.1v-.41c.03-.19.05-.38.05-.57 0-.18-.02-.35-.04-.52l.02-2.11h.31v-.27h18.1v2.12h.04v.41c0 .32.24.6.57.68v.18h.4v-.15h4.87v.15h.44v-.15h.29c.44 0 .79-.32.79-.71v-.16h1.29v.21c0 .31.27.57.6.59v.11h.48v-.11h2.98v.15h.48v-.15h.91c.36 0 .66-.27.66-.59v-.46h2.9v1.91c0 .39.35.71.79.71h.35v.2h.48v-.2h23.39v.2h.48v-.2h.71c.44 0 .79-.32.79-.71v-1.91h1.47v1.03c0 .37.33.67.75.67h.05v.11h.49v-.11h5.09v.08h.47v-.08h.63c.41 0 .75-.3.75-.67v-.28h1.5v.19c0 .42.38.76.84.76h.07v.12h.51v-.12h8.46v.13h.52v-.13h.66c.46 0 .84-.34.84-.76v-3.07h19.47v.06h.35l-.03 3.61h.15c.39 1.54 1.94 2.68 3.8 2.68s3.36-1.11 3.78-2.62l10.26.09c.45 1.46 1.96 2.53 3.76 2.53s3.26-1.04 3.73-2.46h.1v-.41c.04-.19.05-.38.05-.57 0-.18-.02-.35-.04-.52l.02-2.11h.31v-.61h.04v1.16h.29v-1.16h.83v1.16h.29v-1.16h3.01a3.6 3.6 0 0 0 .6.74v.42h.29v-.15c1.79 1.5 4.58 1.6 5.26 1.6v.28h.72v-1.76h-.72v.31c-1.47-.09-2.33-.64-2.85-1.27h.06v-.16h.28v-.57h1.71v-.28h1v1.37h.51v-4.14zm-3.69 3.62zm-173.77 1.59c.74-.3 1.46-.78 1.93-1.56h.45c-.45.6-1.18 1.2-2.38 1.56zm26.59-14.75c0 .51-.56.92-1.25.92h-2.95c-.69 0-1.25-.41-1.25-.92v-3.56c0-.51.56-.93 1.25-.93h2.95c.69 0 1.25.41 1.25.93v3.56zm7.66-.01c0 .51-.56.92-1.25.92h-2.95c-.69 0-1.25-.41-1.25-.92v-3.56c0-.51.56-.93 1.25-.93h2.95c.69 0 1.25.41 1.25.93v3.56zm8.04 0c0 .51-.56.92-1.25.92h-2.95c-.69 0-1.25-.41-1.25-.92v-3.56c0-.51.56-.93 1.25-.93h2.95c.69 0 1.25.41 1.25.93v3.56zm8.02 0c0 .51-.56.92-1.25.92h-2.95c-.69 0-1.25-.41-1.25-.92v-3.56c0-.51.56-.93 1.25-.93h2.95c.69 0 1.25.41 1.25.93v3.56zm7.87 0c0 .51-.56.92-1.25.92h-2.95c-.69 0-1.25-.41-1.25-.92v-3.56c0-.51.56-.93 1.25-.93h2.95c.69 0 1.25.41 1.25.93v3.56zm7.86 0c0 .51-.56.92-1.25.92h-2.95c-.69 0-1.25-.41-1.25-.92v-3.56c0-.51.56-.93 1.25-.93h2.95c.69 0 1.25.41 1.25.93v3.56zm7.92 0c0 .51-.56.92-1.25.92h-2.95c-.69 0-1.25-.41-1.25-.92v-3.56c0-.51.56-.93 1.25-.93h2.95c.69 0 1.25.41 1.25.93v3.56zm7.86 0c0 .51-.56.92-1.25.92h-2.95c-.69 0-1.25-.41-1.25-.92v-3.56c0-.51.56-.93 1.25-.93h2.95c.69 0 1.25.41 1.25.93v3.56zm8.19-.03c0 .51-.56.92-1.25.92h-2.95c-.69 0-1.25-.41-1.25-.92v-3.56c0-.51.56-.93 1.25-.93h2.95c.69 0 1.25.41 1.25.93v3.56zm7.92 0c0 .51-.56.92-1.25.92h-2.95c-.69 0-1.25-.41-1.25-.92v-3.56c0-.51.56-.93 1.25-.93h2.95c.69 0 1.25.41 1.25.93v3.56zm7.67 0c0 .51-.56.92-1.25.92h-2.95c-.69 0-1.25-.41-1.25-.92v-3.56c0-.51.56-.93 1.25-.93h2.95c.69 0 1.25.41 1.25.93v3.56zm8.04.02c0 .51-.56.92-1.25.92h-2.95c-.69 0-1.25-.41-1.25-.92v-3.56c0-.51.56-.92 1.25-.92h2.95c.69 0 1.25.41 1.25.92v3.56zm8.02-.06c0 .51-.56.93-1.25.93h-2.95c-.69 0-1.25-.41-1.25-.93v-3.56c0-.51.56-.92 1.25-.92h2.95c.69 0 1.25.41 1.25.92v3.56zm7.87.04c0 .51-.56.92-1.25.92h-2.95c-.69 0-1.25-.41-1.25-.92v-3.56c0-.51.56-.93 1.25-.93h2.95c.69 0 1.25.41 1.25.93v3.56zm7.86-.02c0 .51-.56.92-1.25.92h-2.95c-.69 0-1.25-.41-1.25-.92v-3.56c0-.51.56-.93 1.25-.93h2.95c.69 0 1.25.41 1.25.93v3.56zm7.93.02c0 .51-.56.92-1.25.92h-2.95c-.69 0-1.25-.41-1.25-.92v-3.56c0-.51.56-.93 1.25-.93h2.95c.69 0 1.25.41 1.25.93v3.56zm7.86.02c0 .51-.56.92-1.25.92h-2.95c-.69 0-1.25-.41-1.25-.92v-3.56c0-.51.56-.92 1.25-.92h2.95c.69 0 1.25.41 1.25.92v3.56zm20.77 14.5c-.64-.29-1.12-.66-1.47-1.05v-.28h.07c.36.6.86 1.02 1.39 1.32z"/><path d="M1483.97 308.83h-.33v1.08h-.99v-.25h-1.71v-2.29h.23v1.51h.51l1.97-1.42v-16.64c-.04-1.77-.58-3.16-1.24-3.16s-1.2 1.4-1.24 3.16v-.04h-.28v-3.51c0-.2-.05-.4-.13-.58h.89c0-1.12-1.21-2.01-2.69-2.01h-1.71c-1.79-.66-3.45-.28-4.26 0h-8.21c-1.79-.66-3.45-.28-4.26 0h-6.58c-1.79-.66-3.45-.28-4.26 0h-6.5c-1.79-.66-3.45-.28-4.26 0h-10.75c-1.79-.66-3.45-.28-4.26 0h-11.79c-1.79-.66-3.45-.28-4.26 0h-9.93c-1.79-.66-3.45-.28-4.26 0h-11.96c-1.79-.66-3.45-.28-4.26 0h-9.69c-1.79-.66-3.45-.28-4.26 0h-9.77c-1.79-.66-3.45-.28-4.26 0h-7.3c-1.79-.66-3.45-.28-4.26 0h-8.04c-1.79-.66-3.45-.28-4.26 0h-7.32c-1.79-.66-3.45-.28-4.26 0h-4.25c-.57 0-1.1.13-1.53.35-.23.12-.44.26-.61.43-.05.05-.07.1-.12.15-.72.36-1.2.98-1.2 1.67v3.56h-.29v.04c-.1-1.84-.7-3.14-1.24-3.16s-1.27 1.24-1.5 3.13l.07 16.63 2.16 1.46h.51v-1.51h.29v2.29h-1.24v.25h-.99v-1.08h-.51V313.01h.51v-1.37h1v.28h1.71v.57h.28v.16h.18v-.16h.29c-.51.72-1.46 1.39-3.24 1.46v-.3h-.73v1.69h.73v-.27c.83 0 4.78-.13 6.34-2.58h2.8v.47h.29v-.47h.83v.47h.29v-.47h.12v.34h.35l-.03 3.61h.15c.39 1.54 1.94 2.68 3.8 2.68s3.36-1.11 3.78-2.62l10.26.09c.45 1.46 1.96 2.53 3.76 2.53s3.26-1.04 3.73-2.46h.1v-.41c.03-.19.05-.38.05-.57 0-.18-.02-.35-.04-.52l.02-2.11h.31v-.27h18.1v2.12h.04v.41c0 .32.24.6.57.68v.18h.4v-.15h4.87v.15h.44v-.15h.29c.44 0 .79-.32.79-.71v-.16h1.29v.21c0 .31.27.57.6.59v.11h.48v-.11h2.98v.15h.48v-.15h.91c.36 0 .66-.27.66-.59v-.46h2.9v1.91c0 .39.35.71.79.71h.35v.2h.48v-.2h23.39v.2h.48v-.2h.71c.44 0 .79-.32.79-.71v-1.91h1.47v1.03c0 .37.33.67.75.67h.05v.11h.49v-.11h5.09v.08h.47v-.08h.63c.41 0 .75-.3.75-.67v-.28h1.5v.19c0 .42.38.76.84.76h.07v.12h.51v-.12h8.46v.13h.52v-.13h.66c.46 0 .84-.34.84-.76v-3.07h19.47v.06h.35l-.03 3.61h.15c.39 1.54 1.94 2.68 3.8 2.68s3.36-1.11 3.78-2.62l10.26.09c.45 1.46 1.96 2.53 3.76 2.53s3.26-1.04 3.73-2.46h.1v-.41c.04-.19.05-.38.05-.57 0-.18-.02-.35-.04-.52l.02-2.11h.31v-.61h.04v1.16h.29v-1.16h.83v1.16h.29v-1.16h3.01a3.6 3.6 0 0 0 .6.74v.42h.29v-.15c1.79 1.5 4.58 1.6 5.26 1.6v.28h.72v-1.76h-.72v.31c-1.47-.09-2.33-.64-2.85-1.27h.06v-.16h.28v-.57h1.71v-.28h1v1.37h.51v-.02l-.18-4.1zm-3.5 3.6zm-173.77 1.59c.74-.3 1.46-.78 1.93-1.56h.45c-.45.6-1.18 1.2-2.38 1.56zm26.59-14.75c0 .51-.56.92-1.25.92h-2.95c-.69 0-1.25-.41-1.25-.92v-3.56c0-.51.56-.93 1.25-.93h2.95c.69 0 1.25.41 1.25.93v3.56zm7.66-.01c0 .51-.56.92-1.25.92h-2.95c-.69 0-1.25-.41-1.25-.92v-3.56c0-.51.56-.93 1.25-.93h2.95c.69 0 1.25.41 1.25.93v3.56zm8.04 0c0 .51-.56.92-1.25.92h-2.95c-.69 0-1.25-.41-1.25-.92v-3.56c0-.51.56-.93 1.25-.93h2.95c.69 0 1.25.41 1.25.93v3.56zm8.02 0c0 .51-.56.92-1.25.92h-2.95c-.69 0-1.25-.41-1.25-.92v-3.56c0-.51.56-.93 1.25-.93h2.95c.69 0 1.25.41 1.25.93v3.56zm7.87 0c0 .51-.56.92-1.25.92h-2.95c-.69 0-1.25-.41-1.25-.92v-3.56c0-.51.56-.93 1.25-.93h2.95c.69 0 1.25.41 1.25.93v3.56zm7.86 0c0 .51-.56.92-1.25.92h-2.95c-.69 0-1.25-.41-1.25-.92v-3.56c0-.51.56-.93 1.25-.93h2.95c.69 0 1.25.41 1.25.93v3.56zm7.92 0c0 .51-.56.92-1.25.92h-2.95c-.69 0-1.25-.41-1.25-.92v-3.56c0-.51.56-.93 1.25-.93h2.95c.69 0 1.25.41 1.25.93v3.56zm7.86 0c0 .51-.56.92-1.25.92h-2.95c-.69 0-1.25-.41-1.25-.92v-3.56c0-.51.56-.93 1.25-.93h2.95c.69 0 1.25.41 1.25.93v3.56zm8.19-.03c0 .51-.56.92-1.25.92h-2.95c-.69 0-1.25-.41-1.25-.92v-3.56c0-.51.56-.93 1.25-.93h2.95c.69 0 1.25.41 1.25.93v3.56zm7.92 0c0 .51-.56.92-1.25.92h-2.95c-.69 0-1.25-.41-1.25-.92v-3.56c0-.51.56-.93 1.25-.93h2.95c.69 0 1.25.41 1.25.93v3.56zm7.67 0c0 .51-.56.92-1.25.92h-2.95c-.69 0-1.25-.41-1.25-.92v-3.56c0-.51.56-.93 1.25-.93h2.95c.69 0 1.25.41 1.25.93v3.56zm8.04.02c0 .51-.56.92-1.25.92h-2.95c-.69 0-1.25-.41-1.25-.92v-3.56c0-.51.56-.92 1.25-.92h2.95c.69 0 1.25.41 1.25.92v3.56zm8.02-.06c0 .51-.56.93-1.25.93h-2.95c-.69 0-1.25-.41-1.25-.93v-3.56c0-.51.56-.92 1.25-.92h2.95c.69 0 1.25.41 1.25.92v3.56zm7.87.04c0 .51-.56.92-1.25.92h-2.95c-.69 0-1.25-.41-1.25-.92v-3.56c0-.51.56-.93 1.25-.93h2.95c.69 0 1.25.41 1.25.93v3.56zm7.86-.02c0 .51-.56.92-1.25.92h-2.95c-.69 0-1.25-.41-1.25-.92v-3.56c0-.51.56-.93 1.25-.93h2.95c.69 0 1.25.41 1.25.93v3.56zm7.93.02c0 .51-.56.92-1.25.92h-2.95c-.69 0-1.25-.41-1.25-.92v-3.56c0-.51.56-.93 1.25-.93h2.95c.69 0 1.25.41 1.25.93v3.56zm7.86.02c0 .51-.56.92-1.25.92h-2.95c-.69 0-1.25-.41-1.25-.92v-3.56c0-.51.56-.92 1.25-.92h2.95c.69 0 1.25.41 1.25.92v3.56zm20.77 14.5c-.64-.29-1.12-.66-1.47-1.05v-.28h.07c.36.6.86 1.02 1.39 1.32z"/></g><path fill="#33302a" d="M740.3 73.57h-.05l.05-.03v.03z"/><path fill="#64748b" d="M-39.03 328.83h1502.98v67.32H-39.03z"/><g clip-path="url(#A)"><g clip-path="url(#B)"><g clip-path="url(#C)"><path fill="#fff" d="M317.12 349.18v-68.27H96.28a3.43 3.43 0 0 0-3.46 3.46v57.39c0 1.94 1.2 3.15 3.46 3.46l32.31 3.96h11.92v-5.87c0-7.24 5.87-13.1 13.1-13.1s13.1 5.87 13.1 13.1v5.87h110.9v-5.87c0-7.24 5.87-13.1 13.1-13.1s13.1 5.87 13.1 13.1v5.87h13.29Z"/><g class="m" clip-path="url(#D)" opacity=".1"><path d="M277.62 349.18v-5.87c0-1.82.37-3.56 1.05-5.14h-113c.68 1.58 1.05 3.32 1.05 5.14v5.87h110.9Z"/></g><g class="m" clip-path="url(#E)" opacity=".1"><path d="m96.28 345.22 32.31 3.96h11.92v-5.87c0-1.82.37-3.56 1.05-5.14H92.82v3.59c0 1.94 1.2 3.15 3.46 3.46"/></g><path fill="#fff" d="M322.17 349.23c-18.16.02-44.48-.09-44.48-.09l3.97-14.04-9.18-54.25h47.22c1.75 0 3.19 1.34 3.33 3.06v.06c.53 8.27 1.83 30.01 2.1 46.54l.05 15.7c0 1.66-1.35 3.01-3.01 3.01"/><path d="M325.14 329.79c-1.04 0-2.66-.04-4.19-.09a4.104 4.104 0 0 1-3.98-4.08l-.24-35.73c-.02-3.57 2.77-6.51 6.3-6.7v.06l.73 12.27 1.28 29.97.09 4.3m3.84-28.09-.58.04c-.14 0-.27-.1-.28-.24l-.71-10.62c0-.14.1-.27.24-.28l.58-.04c.77-.05 1.44.53 1.5 1.3l.55 8.34c.05.77-.53 1.44-1.3 1.5" class="n"/><path stroke="#36404c" stroke-linecap="round" stroke-miterlimit="10" stroke-width="1.67" d="m328.24 290.96-.13-1.78a.907.907 0 0 0-.97-.84l-6.54.46" class="l"/><g class="m" clip-path="url(#F)" opacity=".1"><path d="M325.25 338.16v8c0 1.66-1.35 3.01-3.02 3.01h-18.4v-5.86a13.29 13.29 0 0 0-1.04-5.14h22.46z"/></g><path d="M114.93 311.07c-1.03 0-1.97-.53-2.46-1.44l-10.97-20.75c-.45-.86-.42-1.87.08-2.7s1.4-1.32 2.38-1.32h165.12c1.03 0 1.97.55 2.46 1.46l10.97 20.76c.45.86.43 1.85-.08 2.69-.5.83-1.4 1.3-2.38 1.3H114.93zm192.69-26.21h-27.78c-.91 0-1.79.4-2.3 1.15a2.7 2.7 0 0 0-.18 2.84l12.62 20.73c.48.91 1.43 1.49 2.47 1.49h18.8a2.19 2.19 0 0 0 2.19-2.19v-18.19c0-3.21-2.61-5.82-5.82-5.82" class="n"/><g class="m" clip-path="url(#G)" opacity=".2"><path d="m163.4 280.91-24.58-3.72c-8.84-1.22-17.38-1.23-17.46-1.23H96.85a1.43 1.43 0 0 0-1.43 1.43v3.52h67.97z"/></g><g class="m" clip-path="url(#H)" opacity=".1"><path d="M133.61 326.8a.95.95 0 0 1-.95.95h-20.6a.95.95 0 0 1-.95-.95c0-.53.42-.95.95-.95h20.6a.95.95 0 0 1 .95.95m0 3.46a.95.95 0 0 1-.95.95h-20.6a.95.95 0 0 1-.95-.95c0-.53.42-.95.95-.95h20.6a.95.95 0 0 1 .95.95m0 3.46a.95.95 0 0 1-.95.95h-20.6a.95.95 0 0 1-.95-.95c0-.53.42-.95.95-.95h20.6a.95.95 0 0 1 .95.95"/></g><path fill="#faae40" d="M120.64 343.85h3.44c.34 0 .61.27.61.61v.78c0 .34-.27.61-.61.61h-3.44c-.34 0-.61-.27-.61-.61v-.78c0-.34.27-.61.61-.61Z"/><path fill="#283039" d="M120.3 310.99h-5.37c-.16 0-.29-.02-.4-.08l-1.8-7.82a2.8 2.8 0 0 1 5.46-1.26l2.11 9.16zm21.02-9.16a2.8 2.8 0 1 0-5.46 1.26l1.82 7.9h5.75l-2.11-9.16zm23.13 0a2.8 2.8 0 1 0-5.46 1.26l1.82 7.9h5.75l-2.11-9.16zm23.13 0a2.8 2.8 0 1 0-5.46 1.26l1.82 7.9h5.75l-2.11-9.16zm23.13 0a2.8 2.8 0 1 0-5.46 1.26l1.82 7.9h5.75l-2.11-9.16zm23.13 0a2.8 2.8 0 1 0-5.46 1.26l1.82 7.9h5.75l-2.11-9.16zm21.78 0a2.8 2.8 0 1 0-5.46 1.26l1.82 7.9h5.75l-2.11-9.16zm20 0a2.8 2.8 0 1 0-5.46 1.26l1.82 7.9h5.75l-2.11-9.16zm24.41 0a2.8 2.8 0 1 0-5.46 1.26l1.82 7.9h5.75l-2.11-9.16z"/><path fill="#ced0d5" d="M137.45 283.5h2.22v28.4h-2.22zm53.1 0h2.22v28.4h-2.22zm45.67 0h2.22v28.4h-2.22z"/><path fill="#c12126" d="M92.82 319.79h-.86c-.5 0-.9.4-.9.9v3.28c0 .5.4.9.9.9h.86v-5.08zm0 5.91h-.86c-.5 0-.9.4-.9.9v3.28c0 .5.4.9.9.9h.86v-5.08z"/><path fill="#faae40" d="M92.82 332.19h-.86c-.5 0-.9.4-.9.9v3.28c0 .5.4.9.9.9h.86v-5.08Z"/><path d="M303.83 349.18v-5.87c0-7.24-5.87-13.1-13.1-13.1s-13.1 5.87-13.1 13.1v5.87h26.21Z"/><use xlink:href="#K" class="o"/><path fill="#fff" d="M283.38 343.78c-.09 4.06 3.13 7.41 7.19 7.5s7.41-3.13 7.5-7.19-3.13-7.41-7.19-7.5a7.35 7.35 0 0 0-7.5 7.19"/><use xlink:href="#L" class="p"/><g class="q"><path d="M289.06 339.05c.9-.76 2.46-.78 3.46-.07-.39.65-.89 1.12-1.7 1.16-.84.04-1.26-.56-1.76-1.09m3.38 9.97c-1.06.72-2.5.69-3.4-.02.82-1.5 2.46-1.5 3.4.02m-6.98-3.98c1.81-.13 2.58 1.18 1.78 2.89-1.02-.36-1.65-1.37-1.78-2.89M285.58 342.92c-.15-1.1.57-2.38 1.65-2.91.97 1.47.23 2.78-1.65 2.91m10.35 2.12c.13 1.2-.64 2.52-1.68 2.96-.89-1.5-.27-2.64 1.68-2.96M294.21 340.03c1.07.45 1.8 1.66 1.81 2.95-.74.07-1.35-.18-1.79-.75-.53-.69-.28-1.42-.01-2.2"/></g><path d="M166.81 349.18v-5.87c0-7.24-5.87-13.1-13.1-13.1s-13.1 5.87-13.1 13.1v5.87h26.21Z"/><path d="M141.55 343.68a12.16 12.16 0 0 0 11.9 12.41 12.16 12.16 0 0 0 12.41-11.9 12.16 12.16 0 0 0-11.9-12.41 12.16 12.16 0 0 0-12.41 11.9" class="o"/><path fill="#fff" d="M146.36 343.78c-.09 4.06 3.13 7.41 7.19 7.5s7.41-3.13 7.5-7.19-3.13-7.41-7.19-7.5-7.41 3.13-7.5 7.19"/><path d="M153.74 351.35c-4.1 0-7.4-3.3-7.39-7.4 0-3.99 3.35-7.32 7.35-7.33 4.09-.01 7.44 3.32 7.41 7.39-.03 4.1-3.27 7.34-7.37 7.34" class="p"/><g class="q"><path d="M152.04 339.05c.9-.76 2.46-.78 3.46-.07-.39.65-.89 1.12-1.7 1.16-.84.04-1.26-.56-1.76-1.09m3.38 9.97c-1.06.72-2.5.69-3.4-.02.82-1.5 2.47-1.5 3.4.02m-6.98-3.98c1.81-.13 2.58 1.18 1.78 2.89-1.02-.36-1.65-1.37-1.78-2.89M148.56 342.92c-.15-1.1.57-2.38 1.65-2.91.97 1.47.23 2.78-1.65 2.91m10.35 2.12c.13 1.2-.64 2.52-1.68 2.96-.89-1.5-.27-2.64 1.68-2.96M157.19 340.03c1.07.45 1.8 1.66 1.81 2.95-.74.07-1.35-.18-1.79-.75-.53-.69-.28-1.42-.01-2.2"/></g></g></g></g><g clip-path="url(#I)"><g clip-path="url(#J)"><path fill="#eaeae9" d="m1231.33 324.63-3.3 16.73s-8.57 6.18-7.34-3.46l.42-2.52.1-.45.28-1.14.13-.45c1.79-6.4 4.93-9.2 4.93-9.2l4.78.49z"/><path fill="#da3135" d="M1227.04 329.87c-1.05 1.82-2.91 4.07-3.02 4.21l-.34.4a1.42 1.42 0 0 1-1.19.51l-1.28-.07.28-1.14.13-.45h.13c.47.03.92-.17 1.21-.54l2.67-3.69c.16-.28.5-.39.79-.25l.33.14a.62.62 0 0 1 .29.88"/><path fill="#22170c" d="M1351.07 331.4H1231.1v15.7l4.52.38.88.07 2.42.2 22.74 1.41 60.06 1.35 23.05.02.5-.02.27-.01.68-.03.41-.01.45-.01 1.02-.04c.18-.02.38-.02.57-.03l1.85-.09c.18 0 .37-.02.55-.03v-18.87z"/><path fill="#fff" d="M1361.64 344.05c0 1.28-.08 2.56-.27 3.9.23.34.93.56.43 1.24a10.25 10.25 0 0 1-.83.14l-1.51.22c-2.96.44-5.96.63-8.95.75l-1.85.09-.57.03-1.02.04-.45.01-.41.01-.68.03c-.1.01-.19.01-.27.01l-.5.02c-.31-.52-.19-1.01-.21-1.47-.04-1.98.15-3.96-.4-5.88-.02-.1-.06-.2-.08-.29-1.5-4.58-4.49-7.55-9.32-8.34-4.64-.76-9.25 1.36-11.52 5.09-.79 1.3-1.25 2.71-1.44 4.17-.08.56-.1 1.11-.09 1.68.03 1.62 0 3.23 0 5.03l-60.06-1.35v-3.51c-.03-1.47-.24-2.84-.63-4.1-.88-2.76-2.71-4.95-5.71-6.38a11.78 11.78 0 0 0-6.05-1.12c-.32.03-.64.07-.96.12-3.63.6-6.91 2.91-8.44 6.59-.59 1.36-.92 2.91-.94 4.65-.02.73 0 1.46 0 2.34l-2.42-.2-.88-.07-15.9-1.31c-.71-3.13-.12-7.79.15-9.54a.82.82 0 0 1 .82-.7h2.41a.56.56 0 0 0 .44-.22l3.04-3.88c3.03-4.18 1.15-5.61-.45-6.68-1.51-.96-1.39-2.07-1.25-2.54.04-.13.17-.22.31-.23l11.18-.26c1.4-.76 3.3-1.57 5.44-2.4 2.55-.97 6.27-2.22 9.83-3.37l10.47-3.26c.02 0 .04-.01.05-.01 4.73-.73 9.51-1.04 14.3-1.05 4.69-.02 9.37-.1 14.04.45 2.94.35 5.82.98 8.7 1.74 8.42 2.24 16.11 6.16 23.75 10.17 1.55.82 3.03 1.26 4.84 1.18 2.16-.09 4.36.35 6.54.63 5.68.72 11.31 1.74 16.7 3.75 2.47.92 4.82 2.05 6.83 3.76.9.75 1.38 1.79 1.94 2.79.51.92.71 2.05 1.72 2.69a.91.91 0 0 1 .21.18c.28.3.36.75.42 1.17 0 .04.01.09.02.13.12.89.08 1.77.01 2.69l-.49.55-.04.11"/><path d="m1287.02 326.21-3.08-11.26c9.48.52 18.07 3.34 26.08 8.04 2.59 1.54 4.83 3.04 4.83 3.04l-5.19 1.42-22.64-1.24m-5.95-11.4 1.05 11.13-19.8-1.07-.5-7.33c6.2-2.68 12.69-2.64 19.24-2.73" class="n"/><path fill="#fdfdfd" d="M1345.2 332.01c1.47-.2 2.92-.05 4.36.16 2.58.36 4.97 1.29 7.29 2.48 1.5.77 2.27 2.05 3.12 3.56-3.91-.35-7.82.09-11.12-2.45-2.03-1.56-3.54-3.01-3.64-3.74"/><path d="m1261.17 317.83.46 6.92c-2.23.05-4.39-.19-6.58-.26-.34-1.04-.25-1.97.42-2.69 1.59-1.7 3.53-2.91 5.69-3.97" class="n"/><path fill="#fdfdfd" d="M1358.46 343.99c.19 1.07.06 1.92-.11 2.78-.1.51-.41.8-.93.8h-4.84c.57-1.21 1-2.21 1.62-3.12.14-.21.39-.46.62-.49 1.21-.15 2.42-.17 3.64.02"/><g fill="#babcc1"><use xlink:href="#M"/><path d="M1260.75 329.86h4.73a.37.37 0 0 1 .37.37c0 .16-.1.29-.24.34l-.13.05c-.2.07-.39.1-.59.16l-.59.09c-.39.06-.79.07-1.18.08-.39 0-.79-.01-1.18-.07l-.59-.09-.59-.16-.13-.05a.362.362 0 0 1-.21-.47c.06-.14.19-.23.34-.23"/></g><use xlink:href="#N" class="o"/><path d="M1333.02 352.99c-4.04 0-7.29-3.25-7.28-7.29 0-3.93 3.3-7.21 7.24-7.22 4.03-.01 7.33 3.28 7.3 7.28-.03 4.04-3.23 7.23-7.26 7.23" class="p"/><g class="q"><path d="M1331.35 340.87c.89-.75 2.42-.77 3.4-.07-.39.64-.88 1.11-1.67 1.14-.83.03-1.24-.55-1.73-1.07m3.33 9.82c-1.05.71-2.47.68-3.35-.02.8-1.48 2.43-1.48 3.35.02m-6.87-3.91c1.78-.12 2.55 1.17 1.75 2.85-1-.36-1.62-1.35-1.75-2.85M1327.92 344.68c-.15-1.08.57-2.35 1.62-2.87.96 1.45.22 2.74-1.62 2.87m10.2 2.09c.13 1.18-.63 2.48-1.66 2.92-.88-1.48-.26-2.6 1.66-2.92"/><use xlink:href="#O"/></g><path d="M1250.17 355.64c-5.51 0-9.95-4.44-9.94-9.95 0-5.37 4.5-9.85 9.89-9.86 5.5-.02 10 4.47 9.96 9.94-.04 5.52-4.4 9.87-9.91 9.87" class="o"/><path d="M1250.17 352.99c-4.04 0-7.29-3.25-7.29-7.29 0-3.93 3.3-7.21 7.24-7.22 4.03-.01 7.33 3.28 7.3 7.28-.03 4.04-3.23 7.23-7.26 7.23" class="p"/><g class="q"><path d="M1248.49 340.87c.89-.75 2.42-.77 3.4-.07-.38.64-.88 1.11-1.67 1.14-.83.03-1.24-.55-1.73-1.07m3.34 9.82c-1.05.71-2.47.68-3.35-.02.8-1.48 2.43-1.48 3.35.02m-6.88-3.91c1.78-.12 2.55 1.17 1.75 2.85-1-.36-1.62-1.35-1.75-2.85M1245.07 344.68c-.15-1.08.57-2.35 1.62-2.87.96 1.45.22 2.74-1.62 2.87m10.19 2.09c.13 1.18-.63 2.48-1.66 2.92-.88-1.48-.26-2.6 1.66-2.92M1253.57 341.84c1.06.44 1.77 1.64 1.78 2.91-.73.07-1.33-.18-1.77-.74-.53-.68-.27-1.4-.01-2.17"/></g></g></g></g></svg>