<svg xmlns="http://www.w3.org/2000/svg" width="90" height="90" fill="none"><path fill="#222" fill-rule="evenodd" d="M88 26.232v11.96c0 .843-.68 1.527-1.517 1.527H82.58a1.522 1.522 0 0 1-1.517-1.527v-11.96c0-.85.679-1.535 1.517-1.535h.908v-.819a.69.69 0 0 0-.687-.692h-3.422v46.345a9.264 9.264 0 0 1-5.388 8.43v6.202A1.83 1.83 0 0 1 72.173 86h-9.466a1.83 1.83 0 0 1-1.817-1.837v-5.376H29.11v5.376A1.83 1.83 0 0 1 27.293 86h-9.466a1.83 1.83 0 0 1-1.818-1.837V77.96a9.264 9.264 0 0 1-5.389-8.429V23.186H7.2a.69.69 0 0 0-.688.692v.82h.908c.838 0 1.518.683 1.518 1.534v11.96c0 .843-.68 1.527-1.518 1.527H3.517A1.522 1.522 0 0 1 2 38.192v-11.96c0-.85.68-1.535 1.517-1.535h.909v-.819a2.78 2.78 0 0 1 2.773-2.783h3.421v-7.976c0-1.042.23-2.044.625-2.934.94-2.1 2.915-3.523 5.152-3.968.418-.088.83-.167 1.248-.247C30.856 3.53 45 4.046 45 4.046s14.136-.517 27.355 1.924c.41.08.827.162 1.248.247 2.237.445 4.212 1.868 5.144 3.968.403.89.632 1.892.632 2.934v7.976h3.422a2.78 2.78 0 0 1 2.773 2.783v.82h.909c.837 0 1.517.683 1.517 1.534ZM29.379 13.78c0 .54.434.97.972.97h29.298a.96.96 0 0 0 .964-.97V9.087a.96.96 0 0 0-.964-.97H30.351a.968.968 0 0 0-.972.97v4.692Zm4.211 54.742L18.45 61.97c-1.35-.589-2.946.262-2.946 1.574v1.845c0 3.634 3.413 6.584 7.625 6.584h9.513c2.228 0 2.94-2.584.948-3.45Zm40.906-4.978c0-1.312-1.596-2.163-2.947-1.574L56.402 68.52c-1.983.867-1.272 3.451.948 3.451h9.521c4.212 0 7.625-2.95 7.625-6.584v-1.845Zm0-42.21c0-1.804-1.446-3.268-3.24-3.268H18.744c-1.793 0-3.24 1.463-3.24 3.269v29.732c0 1.543.98 2.91 2.426 3.396 6.93 2.314 16.499 3.745 27.071 3.745 10.572 0 20.14-1.43 27.063-3.745a3.573 3.573 0 0 0 2.433-3.396V21.334Z" clip-rule="evenodd"/></svg>