<svg xmlns="http://www.w3.org/2000/svg" width="381" height="359" fill="none"><path fill="#CFD8DC" d="M339.86 128.5a372.528 372.528 0 0 0-9.36-38.24c-11.4-36.39-34.09-73.21-73.06-85.59-28.77-9.13-59.82-2.83-84.13 15.78-38.13 29.18-65.88 69-107.6 94.27-34.83 21.11-53.06 55.21-41.35 103.41C36.07 266.33 75.19 294.41 118 291c35.58-2.87 72.78.2 103.54 17.47 27.49 15.43 76.06 2 116.24-40.15 23.41-24.57 21.14-55.81 13.51-85-4.72-18.08-7.78-36.52-11.43-54.82Z"/><path fill="#fff" d="M339.86 128.5a372.528 372.528 0 0 0-9.36-38.24c-11.4-36.39-34.09-73.21-73.06-85.59-28.77-9.13-59.82-2.83-84.13 15.78-38.13 29.18-65.88 69-107.6 94.27-34.83 21.11-53.06 55.21-41.35 103.41C36.07 266.33 75.19 294.41 118 291c35.58-2.87 72.78.2 103.54 17.47 27.49 15.43 76.06 2 116.24-40.15 23.41-24.57 21.14-55.81 13.51-85-4.72-18.08-7.78-36.52-11.43-54.82Z" opacity=".7"/><path fill="#CFD8DC" d="M380.41 352.48c0 3.12-85 5.66-189.82 5.66S.76 355.6.76 352.48s85-5.66 189.83-5.66c104.83 0 189.82 2.54 189.82 5.66Z"/><path fill="#fff" d="M380.41 352.48c0 3.12-85 5.66-189.82 5.66S.76 355.6.76 352.48s85-5.66 189.83-5.66c104.83 0 189.82 2.54 189.82 5.66Z" opacity=".3"/><path fill="#CFD8DC" d="M344.07 243.51c0 .05 2.57-2.65 2.71-2.84 1.63-2.18 3.5-7.36 1.73-9.85a3.615 3.615 0 0 0-4.064-1.237 3.615 3.615 0 0 0-1.286.777c-1.62 1.42-2 4.05-1.86 6.08.17 2.38 2.77 7.06 2.77 7.07Z"/><path fill="#CFD8DC" d="M367.43 234.21c-2.5-1.75-7.66.16-9.83 1.8-.19.15-2.87 2.71-2.82 2.73h.06c-.82.3-1.69.62-2.64 1-1.74.7-3.7 1.52-5.78 2.54a67.772 67.772 0 0 0-6.54 3.64 46.976 46.976 0 0 0-6.66 5.06.463.463 0 0 0-.07.07c.44-.77 1.61-3 1.68-3.16 1-2.54 1.43-8-.93-9.95a3.625 3.625 0 0 0-2.868-.679 3.624 3.624 0 0 0-2.422 1.679c-1.18 1.8-.86 4.43-.18 6.35.76 2.17 4.21 5.75 4.49 6a63.277 63.277 0 0 0-5.76 6.29c-1 1.29-2.05 2.62-3 4 .36-.68.68-1.3.71-1.39 1-2.53 1.43-8-.93-9.95a3.61 3.61 0 0 0-5.28 1c-1.19 1.79-.86 4.43-.19 6.34.67 1.91 3.57 5.07 4.34 5.88l-1.17 1.54c-1.8 2.51-3.58 5-5.41 7.42-.64.85-1.3 1.67-2 2.48.32-.61.59-1.12.62-1.2 1-2.54 1.43-8-.93-10a3.605 3.605 0 0 0-4.259-.1 3.61 3.61 0 0 0-1.031 1.1c-1.19 1.8-.86 4.43-.18 6.35.68 1.92 3.28 4.76 4.19 5.73-.7.82-1.4 1.63-2.12 2.39-.5.51-.94 1-1.48 1.51l-1.53 1.44c-1 .88-2 1.8-3.05 2.64-.7.59-1.37 1.13-2 1.68.64-.83 1.88-2.5 2-2.65a14.007 14.007 0 0 0 1.64-6.88 4.78 4.78 0 0 0 .34-.72 3.62 3.62 0 0 0-2.39-4.82c-3-.73-7.1 2.9-8.53 5.22-.08.14-.84 1.72-1.29 2.73.17-.63.36-1.25.53-1.9.36-1.29.68-2.59 1-4 .14-.68.29-1.37.44-2.06.15-.69.24-1.43.37-2.15.25-1.68.43-3.39.58-5.12 1.13.31 5.16 1.36 7.18 1 2.02-.36 4.49-1.26 5.51-3.15a3.601 3.601 0 0 0-1.63-5.12c-2.82-1.18-7.45 1.79-9.22 3.86-.11.13-1.21 1.76-1.8 2.67.08-1 .16-2.08.21-3.14.12-3 .16-6.13.21-9.21 0-.94 0-1.88.06-2.82.4.11 5.17 1.46 7.43 1.11 2-.3 4.49-1.25 5.52-3.15a3.621 3.621 0 0 0-1.64-5.12c-2.81-1.17-7.45 1.8-9.22 3.87-.13.15-1.71 2.5-2.09 3.12.05-2.07.12-4.14.27-6.17.193-2.744.56-5.473 1.1-8.17.19 0 5.16 1.48 7.48 1.12 2-.3 4.48-1.25 5.51-3.15a3.619 3.619 0 0 0-1.63-5.12c-2.82-1.17-7.46 1.79-9.22 3.87-.12.13-1.33 1.92-1.88 2.78l-.16-.06a46.118 46.118 0 0 1 2.57-7.89c.58-1.41 1.21-2.72 1.86-4 .9.36 5 2 7.14 1.88 2.14-.12 4.6-.76 5.83-2.53a3.63 3.63 0 0 0 .642-2.871 3.604 3.604 0 0 0-.597-1.38 3.61 3.61 0 0 0-1.105-1.019c-2.67-1.47-7.61 1-9.59 2.83-.11.1-1.09 1.25-1.8 2.1.3-.56.6-1.15.9-1.69 1.12-2 2.26-3.8 3.29-5.37.59-.88 1.14-1.67 1.67-2.41 1.06-.1 5.36-.59 7.17-1.62 1.81-1.03 3.73-2.79 4-4.93a3.608 3.608 0 0 0-.75-2.844 3.595 3.595 0 0 0-2.62-1.336c-3.05-.08-6.3 4.35-7.2 6.92-.08.23-.9 3.84-.85 3.83h.07a43.59 43.59 0 0 0-1.65 2.28c-1.07 1.55-2.26 3.31-3.42 5.31a64.75 64.75 0 0 0-3.45 6.64 47.933 47.933 0 0 0-2.77 7.9.28.28 0 0 1 0 .1c0-.89-.3-3.38-.34-3.57-.56-2.66-3.23-7.48-6.26-7.78a3.6 3.6 0 0 0-2.77.994 3.608 3.608 0 0 0-1.11 2.726c0 2.15 1.73 4.17 3.35 5.39 1.83 1.39 6.68 2.48 7.07 2.56a64.895 64.895 0 0 0-1.33 8.43c-.15 1.65-.26 3.31-.35 5-.07-.77-.14-1.46-.16-1.55-.57-2.67-3.24-7.48-6.27-7.79a3.6 3.6 0 0 0-2.77.994 3.608 3.608 0 0 0-1.11 2.726c0 2.15 1.73 4.17 3.35 5.4 1.62 1.23 5.77 2.25 6.86 2.51 0 .64-.06 1.28-.08 1.92-.12 3.08-.22 6.16-.41 9.17-.07 1.06-.18 2.11-.28 3.15-.06-.68-.13-1.26-.14-1.34-.57-2.67-3.24-7.48-6.27-7.79a3.6 3.6 0 0 0-2.77.994 3.608 3.608 0 0 0-1.11 2.726c0 2.16 1.73 4.17 3.35 5.4 1.62 1.23 5.37 2.16 6.66 2.46-.13 1.07-.27 2.14-.45 3.16-.14.7-.22 1.39-.4 2.08l-.48 2c-.36 1.29-.71 2.63-1.09 3.88-.26.87-.52 1.7-.78 2.54.08-1.06.19-3.13.18-3.31-.15-2.71-2.06-7.88-5-8.64a3.604 3.604 0 0 0-2.884.567 3.602 3.602 0 0 0-1.506 2.523c-.33 2.13 1.07 4.38 2.49 5.84 1.42 1.46 6 3.37 6.56 3.59-.44 1.38-.87 2.71-1.3 4-1.49 4.35-2.89 7.92-3.9 10.4 0 .09-.07.17-.11.25l1.82 1c.06-.16.13-.32.19-.49 1-2.53 2.31-6.17 3.71-10.6.45-1.4.9-2.9 1.35-4.45a38.87 38.87 0 0 0 4.6.3c.55 2.23 3.1 5.89 3.43 6.36-1.12.91-2.22 1.79-3.27 2.6-3.64 2.81-6.78 5-9 6.52l-.26.18 2 1.1c2.16-1.55 5-3.7 8.37-6.38 1.14-.92 2.35-1.93 3.57-3 .45.38 4.1 3.48 6.26 4.1 1.95.56 4.6.74 6.32-.55a3.6 3.6 0 0 0 1.388-4.015 3.61 3.61 0 0 0-.728-1.315c-2.06-2.25-7.51-1.5-10-.36-.14.07-1.64 1-2.58 1.56.5-.43 1-.84 1.49-1.29 1-.87 2-1.78 3.06-2.76l1.5-1.47c.51-.49 1-1.06 1.5-1.59 1.14-1.26 2.23-2.59 3.3-3.95.78.88 3.57 4 5.42 4.84 1.85.84 4.44 1.42 6.34.41a3.627 3.627 0 0 0 1.46-5.17c-1.7-2.53-7.2-2.62-9.82-1.87-.17.05-2 .8-3 1.23.63-.82 1.28-1.64 1.89-2.5 1.79-2.47 3.52-5 5.26-7.56l1.61-2.32c.27.31 3.51 4.07 5.59 5 1.84.85 4.43 1.43 6.33.41a3.595 3.595 0 0 0 1.888-2.258 3.594 3.594 0 0 0-.428-2.912c-1.7-2.53-7.2-2.62-9.82-1.86-.19.05-2.81 1.14-3.46 1.45 1.18-1.7 2.38-3.39 3.63-5a61.75 61.75 0 0 1 5.42-6.21c.13.15 3.49 4.08 5.61 5.06 1.85.86 4.44 1.43 6.34.42a3.602 3.602 0 0 0 1.883-2.259 3.606 3.606 0 0 0-.423-2.911c-1.7-2.54-7.2-2.62-9.82-1.87-.17.05-2.16.88-3.1 1.29l-.1-.15a46.81 46.81 0 0 1 6.49-5.15c1.27-.86 2.52-1.61 3.76-2.3.55.79 3.1 4.4 4.92 5.5 1.82 1.1 4.25 1.91 6.25 1.11a3.61 3.61 0 0 0 2-5c-1.41-2.71-6.87-3.39-9.55-2.93-.15 0-1.61.44-2.66.76l1.68-.92c2.05-1.06 4-1.92 5.71-2.66 1-.41 1.88-.77 2.72-1.09.95.5 4.79 2.47 6.87 2.6 2.08.13 4.66-.27 6.06-1.9a3.602 3.602 0 0 0 .877-2.693 3.605 3.605 0 0 0-1.337-2.497Z"/><path fill="#CFD8DC" d="M297.19 216.36c1.45 1.9 6.2 4.37 6.21 4.37.01 0 .68-3.62.69-3.86.16-2.72-1.14-8.06-4-9.16a3.603 3.603 0 0 0-2.934.231 3.62 3.62 0 0 0-1.786 2.339c-.56 2.07.63 4.47 1.82 6.08Z"/><g fill="#fff" opacity=".5"><path d="M344.07 243.51c0 .05 2.57-2.65 2.71-2.84 1.63-2.18 3.5-7.36 1.73-9.85a3.615 3.615 0 0 0-4.064-1.237 3.615 3.615 0 0 0-1.286.777c-1.62 1.42-2 4.05-1.86 6.08.17 2.38 2.77 7.06 2.77 7.07Z"/><path d="M367.43 234.21c-2.5-1.75-7.66.16-9.83 1.8-.19.15-2.87 2.71-2.82 2.73h.06c-.82.3-1.69.62-2.64 1-1.74.7-3.7 1.52-5.78 2.54a67.772 67.772 0 0 0-6.54 3.64 46.976 46.976 0 0 0-6.66 5.06.463.463 0 0 0-.07.07c.44-.77 1.61-3 1.68-3.16 1-2.54 1.43-8-.93-9.95a3.625 3.625 0 0 0-2.868-.679 3.624 3.624 0 0 0-2.422 1.679c-1.18 1.8-.86 4.43-.18 6.35.76 2.17 4.21 5.75 4.49 6a63.277 63.277 0 0 0-5.76 6.29c-1 1.29-2.05 2.62-3 4 .36-.68.68-1.3.71-1.39 1-2.53 1.43-8-.93-9.95a3.61 3.61 0 0 0-5.28 1c-1.19 1.79-.86 4.43-.19 6.34.67 1.91 3.57 5.07 4.34 5.88l-1.17 1.54c-1.8 2.51-3.58 5-5.41 7.42-.64.85-1.3 1.67-2 2.48.32-.61.59-1.12.62-1.2 1-2.54 1.43-8-.93-10a3.605 3.605 0 0 0-4.259-.1 3.61 3.61 0 0 0-1.031 1.1c-1.19 1.8-.86 4.43-.18 6.35.68 1.92 3.28 4.76 4.19 5.73-.7.82-1.4 1.63-2.12 2.39-.5.51-.94 1-1.48 1.51l-1.53 1.44c-1 .88-2 1.8-3.05 2.64-.7.59-1.37 1.13-2 1.68.64-.83 1.88-2.5 2-2.65a14.007 14.007 0 0 0 1.64-6.88 4.78 4.78 0 0 0 .34-.72 3.62 3.62 0 0 0-2.39-4.82c-3-.73-7.1 2.9-8.53 5.22-.08.14-.84 1.72-1.29 2.73.17-.63.36-1.25.53-1.9.36-1.29.68-2.59 1-4 .14-.68.29-1.37.44-2.06.15-.69.24-1.43.37-2.15.25-1.68.43-3.39.58-5.12 1.13.31 5.16 1.36 7.18 1 2.02-.36 4.49-1.26 5.51-3.15a3.601 3.601 0 0 0-1.63-5.12c-2.82-1.18-7.45 1.79-9.22 3.86-.11.13-1.21 1.76-1.8 2.67.08-1 .16-2.08.21-3.14.12-3 .16-6.13.21-9.21 0-.94 0-1.88.06-2.82.4.11 5.17 1.46 7.43 1.11 2-.3 4.49-1.25 5.52-3.15a3.621 3.621 0 0 0-1.64-5.12c-2.81-1.17-7.45 1.8-9.22 3.87-.13.15-1.71 2.5-2.09 3.12.05-2.07.12-4.14.27-6.17.193-2.744.56-5.473 1.1-8.17.19 0 5.16 1.48 7.48 1.12 2-.3 4.48-1.25 5.51-3.15a3.619 3.619 0 0 0-1.63-5.12c-2.82-1.17-7.46 1.79-9.22 3.87-.12.13-1.33 1.92-1.88 2.78l-.16-.06a46.118 46.118 0 0 1 2.57-7.89c.58-1.41 1.21-2.72 1.86-4 .9.36 5 2 7.14 1.88 2.14-.12 4.6-.76 5.83-2.53a3.63 3.63 0 0 0 .642-2.871 3.604 3.604 0 0 0-.597-1.38 3.61 3.61 0 0 0-1.105-1.019c-2.67-1.47-7.61 1-9.59 2.83-.11.1-1.09 1.25-1.8 2.1.3-.56.6-1.15.9-1.69 1.12-2 2.26-3.8 3.29-5.37.59-.88 1.14-1.67 1.67-2.41 1.06-.1 5.36-.59 7.17-1.62 1.81-1.03 3.73-2.79 4-4.93a3.608 3.608 0 0 0-.75-2.844 3.595 3.595 0 0 0-2.62-1.336c-3.05-.08-6.3 4.35-7.2 6.92-.08.23-.9 3.84-.85 3.83h.07a43.59 43.59 0 0 0-1.65 2.28c-1.07 1.55-2.26 3.31-3.42 5.31a64.75 64.75 0 0 0-3.45 6.64 47.933 47.933 0 0 0-2.77 7.9.28.28 0 0 1 0 .1c0-.89-.3-3.38-.34-3.57-.56-2.66-3.23-7.48-6.26-7.78a3.6 3.6 0 0 0-2.77.994 3.608 3.608 0 0 0-1.11 2.726c0 2.15 1.73 4.17 3.35 5.39 1.83 1.39 6.68 2.48 7.07 2.56a64.895 64.895 0 0 0-1.33 8.43c-.15 1.65-.26 3.31-.35 5-.07-.77-.14-1.46-.16-1.55-.57-2.67-3.24-7.48-6.27-7.79a3.6 3.6 0 0 0-2.77.994 3.608 3.608 0 0 0-1.11 2.726c0 2.15 1.73 4.17 3.35 5.4 1.62 1.23 5.77 2.25 6.86 2.51 0 .64-.06 1.28-.08 1.92-.12 3.08-.22 6.16-.41 9.17-.07 1.06-.18 2.11-.28 3.15-.06-.68-.13-1.26-.14-1.34-.57-2.67-3.24-7.48-6.27-7.79a3.6 3.6 0 0 0-2.77.994 3.608 3.608 0 0 0-1.11 2.726c0 2.16 1.73 4.17 3.35 5.4 1.62 1.23 5.37 2.16 6.66 2.46-.13 1.07-.27 2.14-.45 3.16-.14.7-.22 1.39-.4 2.08l-.48 2c-.36 1.29-.71 2.63-1.09 3.88-.26.87-.52 1.7-.78 2.54.08-1.06.19-3.13.18-3.31-.15-2.71-2.06-7.88-5-8.64a3.604 3.604 0 0 0-2.884.567 3.602 3.602 0 0 0-1.506 2.523c-.33 2.13 1.07 4.38 2.49 5.84 1.42 1.46 6 3.37 6.56 3.59-.44 1.38-.87 2.71-1.3 4-1.49 4.35-2.89 7.92-3.9 10.4 0 .09-.07.17-.11.25l1.82 1c.06-.16.13-.32.19-.49 1-2.53 2.31-6.17 3.71-10.6.45-1.4.9-2.9 1.35-4.45a38.87 38.87 0 0 0 4.6.3c.55 2.23 3.1 5.89 3.43 6.36-1.12.91-2.22 1.79-3.27 2.6-3.64 2.81-6.78 5-9 6.52l-.26.18 2 1.1c2.16-1.55 5-3.7 8.37-6.38 1.14-.92 2.35-1.93 3.57-3 .45.38 4.1 3.48 6.26 4.1 1.95.56 4.6.74 6.32-.55a3.6 3.6 0 0 0 1.388-4.015 3.61 3.61 0 0 0-.728-1.315c-2.06-2.25-7.51-1.5-10-.36-.14.07-1.64 1-2.58 1.56.5-.43 1-.84 1.49-1.29 1-.87 2-1.78 3.06-2.76l1.5-1.47c.51-.49 1-1.06 1.5-1.59 1.14-1.26 2.23-2.59 3.3-3.95.78.88 3.57 4 5.42 4.84 1.85.84 4.44 1.42 6.34.41a3.627 3.627 0 0 0 1.46-5.17c-1.7-2.53-7.2-2.62-9.82-1.87-.17.05-2 .8-3 1.23.63-.82 1.28-1.64 1.89-2.5 1.79-2.47 3.52-5 5.26-7.56l1.61-2.32c.27.31 3.51 4.07 5.59 5 1.84.85 4.43 1.43 6.33.41a3.595 3.595 0 0 0 1.888-2.258 3.594 3.594 0 0 0-.428-2.912c-1.7-2.53-7.2-2.62-9.82-1.86-.19.05-2.81 1.14-3.46 1.45 1.18-1.7 2.38-3.39 3.63-5a61.75 61.75 0 0 1 5.42-6.21c.13.15 3.49 4.08 5.61 5.06 1.85.86 4.44 1.43 6.34.42a3.602 3.602 0 0 0 1.883-2.259 3.606 3.606 0 0 0-.423-2.911c-1.7-2.54-7.2-2.62-9.82-1.87-.17.05-2.16.88-3.1 1.29l-.1-.15a46.81 46.81 0 0 1 6.49-5.15c1.27-.86 2.52-1.61 3.76-2.3.55.79 3.1 4.4 4.92 5.5 1.82 1.1 4.25 1.91 6.25 1.11a3.61 3.61 0 0 0 2-5c-1.41-2.71-6.87-3.39-9.55-2.93-.15 0-1.61.44-2.66.76l1.68-.92c2.05-1.06 4-1.92 5.71-2.66 1-.41 1.88-.77 2.72-1.09.95.5 4.79 2.47 6.87 2.6 2.08.13 4.66-.27 6.06-1.9a3.602 3.602 0 0 0 .877-2.693 3.605 3.605 0 0 0-1.337-2.497Z"/><path d="M297.19 216.36c1.45 1.9 6.2 4.37 6.21 4.37.01 0 .68-3.62.69-3.86.16-2.72-1.14-8.06-4-9.16a3.603 3.603 0 0 0-2.934.231 3.62 3.62 0 0 0-1.786 2.339c-.56 2.07.63 4.47 1.82 6.08Z"/></g><path fill="#CFD8DC" d="M102 165.8c.06 0-.78-4.19-.87-4.44-1-3-4.6-8.21-8.12-8.2a4.177 4.177 0 0 0-3.056 1.479 4.167 4.167 0 0 0-.944 3.261c.26 2.47 2.48 4.58 4.49 5.79 2.34 1.43 8.5 2.11 8.5 2.11Z"/><path fill="#CFD8DC" d="M108.81 137.59c-3.32 1.19-5 7.33-4.86 10.47 0 .27.63 4.5.69 4.47h.07c-.27 1-.54 2-.82 3.15-.5 2.11-1 4.5-1.46 7.14a76.414 76.414 0 0 0-.94 8.59 54.503 54.503 0 0 0 .33 9.65c.005.04.005.08 0 .12-.43-.94-1.73-3.51-1.86-3.7-1.72-2.63-6.6-6.7-10-5.76a4.18 4.18 0 0 0-2.61 5.63c.9 2.31 3.6 3.76 5.86 4.4 2.55.73 8.23-.13 8.68-.2a73.151 73.151 0 0 0 2.09 9.62c.52 1.84 1.1 3.68 1.71 5.52-.4-.8-.77-1.51-.83-1.6-1.73-2.63-6.6-6.7-10-5.76a4.15 4.15 0 0 0-2.56 2.227 4.16 4.16 0 0 0-.05 3.393c.9 2.32 3.6 3.77 5.86 4.41 2.26.64 7.14 0 8.43-.17.24.7.47 1.41.71 2.11 1.16 3.36 2.34 6.72 3.39 10 .37 1.17.69 2.34 1 3.5-.36-.71-.66-1.3-.72-1.38-1.72-2.63-6.6-6.7-10-5.76a4.153 4.153 0 0 0-2.56 2.227 4.16 4.16 0 0 0-.05 3.393c.9 2.32 3.6 3.77 5.86 4.41 2.26.64 6.67.08 8.2-.14.3 1.21.6 2.41.83 3.59.15.81.34 1.58.44 2.41.1.83.22 1.61.34 2.4.16 1.54.33 3.13.45 4.64.09 1 .15 2 .22 3-.35-1.17-1.1-3.45-1.18-3.63a16.265 16.265 0 0 0-5.39-6.14 4.922 4.922 0 0 0-.46-.8 4.182 4.182 0 0 0-6.13-1c-2.66 2.31-2 8.62-.77 11.52.07.17 1.07 1.93 1.71 3-.48-.59-.93-1.17-1.43-1.78-1-1.19-2-2.36-3.08-3.62l-1.65-1.79c-.54-.61-1.18-1.18-1.78-1.78-1.4-1.36-2.9-2.67-4.43-4 1-.86 4.72-4 5.78-6.07 1.06-2.07 1.8-5.07.7-7.3a4.153 4.153 0 0 0-2.537-2.256 4.166 4.166 0 0 0-3.373.386c-3 1.87-3.28 8.21-2.51 11.26.05.19.85 2.31 1.31 3.47-.93-.76-1.85-1.53-2.81-2.28-2.79-2.15-5.67-4.24-8.54-6.34-.88-.64-1.75-1.3-2.62-1.94.38-.31 4.83-3.9 6-6.26 1.05-2.1 1.81-5.07.71-7.3a4.153 4.153 0 0 0-2.537-2.256 4.166 4.166 0 0 0-3.373.386c-3 1.87-3.29 8.21-2.51 11.26 0 .23 1.21 3.29 1.54 4.05-1.92-1.43-3.81-2.87-5.63-4.37a74.54 74.54 0 0 1-7-6.48c.18-.14 4.84-3.87 6-6.29 1.05-2.1 1.81-5.07.71-7.3a4.153 4.153 0 0 0-2.537-2.256 4.166 4.166 0 0 0-3.373.386c-3 1.87-3.29 8.21-2.51 11.26 0 .2.93 2.53 1.37 3.63l-.17.1a53.22 53.22 0 0 1-5.72-7.68c-.94-1.48-1.75-3-2.51-4.41.93-.61 5.2-3.42 6.53-5.48 1.33-2.06 2.35-4.84 1.5-7.17a4.168 4.168 0 0 0-5.67-2.52c-3.17 1.54-4.16 7.81-3.73 10.92 0 .17.45 1.87.78 3.1-.33-.66-.68-1.34-1-2-1.16-2.4-2.07-4.66-2.87-6.68-.44-1.15-.81-2.19-1.15-3.18.61-1.07 3-5.44 3.24-7.83.24-2.39-.13-5.38-2-7.06a4.174 4.174 0 0 0-4.852-.725 4.18 4.18 0 0 0-1.338 1.105c-2.1 2.82-.09 8.85 1.73 11.41.15.22 3 3.41 3 3.35v-.07c.31 1 .65 2 1 3.08.75 2 1.62 4.33 2.73 6.76a73.072 73.072 0 0 0 3.95 7.68 55.35 55.35 0 0 0 5.6 7.88l.08.08c-.88-.54-3.38-2-3.59-2.06-2.89-1.24-9.2-1.94-11.52.71a4.181 4.181 0 0 0 .93 6.14c2 1.43 5.08 1.15 7.31.44 2.53-.8 6.79-4.65 7.13-5a74.067 74.067 0 0 0 7 6.87c1.45 1.25 2.95 2.47 4.47 3.66l-1.57-.88c-2.89-1.24-9.2-1.94-11.52.72a4.164 4.164 0 0 0-.905 3.27 4.172 4.172 0 0 0 1.825 2.86c2 1.44 5.08 1.15 7.32.44s6-3.92 6.94-4.79l1.76 1.37c2.83 2.16 5.66 4.31 8.37 6.5.95.77 1.86 1.57 2.78 2.36-.69-.39-1.27-.72-1.37-.76-2.88-1.24-9.2-1.94-11.51.71a4.178 4.178 0 0 0 .92 6.14c2 1.43 5.08 1.15 7.32.44s5.61-3.62 6.76-4.64c.92.84 1.83 1.68 2.68 2.54.57.59 1.15 1.13 1.69 1.76l1.61 1.82c1 1.2 2 2.43 2.93 3.62.65.82 1.26 1.62 1.87 2.42-.94-.78-2.82-2.27-3-2.37-2.67-1.67-8.8-3.32-11.49-1a4.161 4.161 0 0 0 0 6.2c1.79 1.73 4.85 1.91 7.17 1.55 2.55-.4 7.18-3.42 7.75-3.8 1 1.33 2 2.63 2.87 3.88 3.12 4.3 5.55 8 7.21 10.61l.17.27 2.15-1.05-.34-.51c-1.74-2.6-4.27-6.29-7.51-10.56-1-1.36-2.13-2.78-3.29-4.23a47.072 47.072 0 0 0 3.34-4.14c2.47 1 7.63 1 8.29 1 .11 1.67.2 3.29.26 4.82.22 5.3.21 9.73.15 12.83v.36l2.36-1.15c0-3.08-.11-7.23-.43-12.15-.1-1.69-.24-3.5-.41-5.35.66-.16 6-1.54 8-3.15 1.83-1.47 3.76-3.85 3.7-6.33a4.167 4.167 0 0 0-4.59-4.18c-3.49.45-6.42 6.08-7 9.18 0 .18-.18 2.2-.26 3.47-.07-.75-.13-1.49-.21-2.27-.16-1.53-.36-3.07-.57-4.71l-.39-2.41c-.11-.8-.33-1.63-.5-2.46-.42-1.92-.94-3.83-1.51-5.76 1.34-.13 6.12-.7 8.17-1.87 2.05-1.17 4.3-3.23 4.61-5.7a4.17 4.17 0 0 0-2.222-4.374 4.164 4.164 0 0 0-1.678-.446c-3.52-.09-7.27 5-8.3 8-.07.18-.57 2.4-.83 3.62-.35-1.15-.69-2.3-1.08-3.46-1.14-3.33-2.39-6.66-3.63-10l-1.11-3.06c.48-.05 6.18-.59 8.47-1.91 2-1.17 4.3-3.23 4.61-5.69a4.172 4.172 0 0 0-3.9-4.83c-3.52-.08-7.27 5-8.3 8-.08.23-.8 3.41-.95 4.23-.81-2.25-1.6-4.5-2.28-6.75a72.202 72.202 0 0 1-2.24-9.25c.22 0 6.17-.56 8.52-1.91 2-1.17 4.3-3.23 4.61-5.7a4.171 4.171 0 0 0-3.9-4.82c-3.52-.09-7.27 5-8.3 8-.07.2-.62 2.62-.86 3.78h-.2a54.11 54.11 0 0 1-.53-9.56c0-1.76.17-3.44.33-5.07 1.12 0 6.23 0 8.47-1s4.64-2.73 5.22-5.15a4.15 4.15 0 0 0-.508-3.359 4.155 4.155 0 0 0-2.842-1.861c-3.49-.48-7.78 4.21-9.13 7-.08.16-.65 1.81-1.06 3 .09-.74.17-1.5.26-2.2.36-2.64.85-5 1.3-7.15.27-1.2.53-2.28.79-3.29 1.1-.56 5.52-2.87 7-4.75 1.48-1.88 2.85-4.56 2.25-7a4.172 4.172 0 0 0-4.95-2.75Z"/><path fill="#CFD8DC" d="M45.15 191.87c2.75-.11 8.25-2.93 8.26-2.93.01 0-3-3.06-3.18-3.23-2.46-2-8.36-4.3-11.29-2.36a4.153 4.153 0 0 0-1.743 2.916 4.161 4.161 0 0 0 1.013 3.244c1.58 1.93 4.59 2.49 6.94 2.36Z"/><g fill="#fff" opacity=".5"><path d="M102 165.8c.06 0-.78-4.19-.87-4.44-1-3-4.6-8.21-8.12-8.2a4.177 4.177 0 0 0-3.056 1.479 4.167 4.167 0 0 0-.944 3.261c.26 2.47 2.48 4.58 4.49 5.79 2.34 1.43 8.5 2.11 8.5 2.11Z"/><path d="M108.81 137.59c-3.32 1.19-5 7.33-4.86 10.47 0 .27.63 4.5.69 4.47h.07c-.27 1-.54 2-.82 3.15-.5 2.11-1 4.5-1.46 7.14a76.414 76.414 0 0 0-.94 8.59 54.503 54.503 0 0 0 .33 9.65c.005.04.005.08 0 .12-.43-.94-1.73-3.51-1.86-3.7-1.72-2.63-6.6-6.7-10-5.76a4.18 4.18 0 0 0-2.61 5.63c.9 2.31 3.6 3.76 5.86 4.4 2.55.73 8.23-.13 8.68-.2a73.151 73.151 0 0 0 2.09 9.62c.52 1.84 1.1 3.68 1.71 5.52-.4-.8-.77-1.51-.83-1.6-1.73-2.63-6.6-6.7-10-5.76a4.15 4.15 0 0 0-2.56 2.227 4.16 4.16 0 0 0-.05 3.393c.9 2.32 3.6 3.77 5.86 4.41 2.26.64 7.14 0 8.43-.17.24.7.47 1.41.71 2.11 1.16 3.36 2.34 6.72 3.39 10 .37 1.17.69 2.34 1 3.5-.36-.71-.66-1.3-.72-1.38-1.72-2.63-6.6-6.7-10-5.76a4.153 4.153 0 0 0-2.56 2.227 4.16 4.16 0 0 0-.05 3.393c.9 2.32 3.6 3.77 5.86 4.41 2.26.64 6.67.08 8.2-.14.3 1.21.6 2.41.83 3.59.15.81.34 1.58.44 2.41.1.83.22 1.61.34 2.4.16 1.54.33 3.13.45 4.64.09 1 .15 2 .22 3-.35-1.17-1.1-3.45-1.18-3.63a16.265 16.265 0 0 0-5.39-6.14 4.922 4.922 0 0 0-.46-.8 4.182 4.182 0 0 0-6.13-1c-2.66 2.31-2 8.62-.77 11.52.07.17 1.07 1.93 1.71 3-.48-.59-.93-1.17-1.43-1.78-1-1.19-2-2.36-3.08-3.62l-1.65-1.79c-.54-.61-1.18-1.18-1.78-1.78-1.4-1.36-2.9-2.67-4.43-4 1-.86 4.72-4 5.78-6.07 1.06-2.07 1.8-5.07.7-7.3a4.153 4.153 0 0 0-2.537-2.256 4.166 4.166 0 0 0-3.373.386c-3 1.87-3.28 8.21-2.51 11.26.05.19.85 2.31 1.31 3.47-.93-.76-1.85-1.53-2.81-2.28-2.79-2.15-5.67-4.24-8.54-6.34-.88-.64-1.75-1.3-2.62-1.94.38-.31 4.83-3.9 6-6.26 1.05-2.1 1.81-5.07.71-7.3a4.153 4.153 0 0 0-2.537-2.256 4.166 4.166 0 0 0-3.373.386c-3 1.87-3.29 8.21-2.51 11.26 0 .23 1.21 3.29 1.54 4.05-1.92-1.43-3.81-2.87-5.63-4.37a74.54 74.54 0 0 1-7-6.48c.18-.14 4.84-3.87 6-6.29 1.05-2.1 1.81-5.07.71-7.3a4.153 4.153 0 0 0-2.537-2.256 4.166 4.166 0 0 0-3.373.386c-3 1.87-3.29 8.21-2.51 11.26 0 .2.93 2.53 1.37 3.63l-.17.1a53.22 53.22 0 0 1-5.72-7.68c-.94-1.48-1.75-3-2.51-4.41.93-.61 5.2-3.42 6.53-5.48 1.33-2.06 2.35-4.84 1.5-7.17a4.168 4.168 0 0 0-5.67-2.52c-3.17 1.54-4.16 7.81-3.73 10.92 0 .17.45 1.87.78 3.1-.33-.66-.68-1.34-1-2-1.16-2.4-2.07-4.66-2.87-6.68-.44-1.15-.81-2.19-1.15-3.18.61-1.07 3-5.44 3.24-7.83.24-2.39-.13-5.38-2-7.06a4.174 4.174 0 0 0-4.852-.725 4.18 4.18 0 0 0-1.338 1.105c-2.1 2.82-.09 8.85 1.73 11.41.15.22 3 3.41 3 3.35v-.07c.31 1 .65 2 1 3.08.75 2 1.62 4.33 2.73 6.76a73.072 73.072 0 0 0 3.95 7.68 55.35 55.35 0 0 0 5.6 7.88l.08.08c-.88-.54-3.38-2-3.59-2.06-2.89-1.24-9.2-1.94-11.52.71a4.181 4.181 0 0 0 .93 6.14c2 1.43 5.08 1.15 7.31.44 2.53-.8 6.79-4.65 7.13-5a74.067 74.067 0 0 0 7 6.87c1.45 1.25 2.95 2.47 4.47 3.66l-1.57-.88c-2.89-1.24-9.2-1.94-11.52.72a4.164 4.164 0 0 0-.905 3.27 4.172 4.172 0 0 0 1.825 2.86c2 1.44 5.08 1.15 7.32.44s6-3.92 6.94-4.79l1.76 1.37c2.83 2.16 5.66 4.31 8.37 6.5.95.77 1.86 1.57 2.78 2.36-.69-.39-1.27-.72-1.37-.76-2.88-1.24-9.2-1.94-11.51.71a4.178 4.178 0 0 0 .92 6.14c2 1.43 5.08 1.15 7.32.44s5.61-3.62 6.76-4.64c.92.84 1.83 1.68 2.68 2.54.57.59 1.15 1.13 1.69 1.76l1.61 1.82c1 1.2 2 2.43 2.93 3.62.65.82 1.26 1.62 1.87 2.42-.94-.78-2.82-2.27-3-2.37-2.67-1.67-8.8-3.32-11.49-1a4.161 4.161 0 0 0 0 6.2c1.79 1.73 4.85 1.91 7.17 1.55 2.55-.4 7.18-3.42 7.75-3.8 1 1.33 2 2.63 2.87 3.88 3.12 4.3 5.55 8 7.21 10.61l.17.27 2.15-1.05-.34-.51c-1.74-2.6-4.27-6.29-7.51-10.56-1-1.36-2.13-2.78-3.29-4.23a47.072 47.072 0 0 0 3.34-4.14c2.47 1 7.63 1 8.29 1 .11 1.67.2 3.29.26 4.82.22 5.3.21 9.73.15 12.83v.36l2.36-1.15c0-3.08-.11-7.23-.43-12.15-.1-1.69-.24-3.5-.41-5.35.66-.16 6-1.54 8-3.15 1.83-1.47 3.76-3.85 3.7-6.33a4.167 4.167 0 0 0-4.59-4.18c-3.49.45-6.42 6.08-7 9.18 0 .18-.18 2.2-.26 3.47-.07-.75-.13-1.49-.21-2.27-.16-1.53-.36-3.07-.57-4.71l-.39-2.41c-.11-.8-.33-1.63-.5-2.46-.42-1.92-.94-3.83-1.51-5.76 1.34-.13 6.12-.7 8.17-1.87 2.05-1.17 4.3-3.23 4.61-5.7a4.17 4.17 0 0 0-2.222-4.374 4.164 4.164 0 0 0-1.678-.446c-3.52-.09-7.27 5-8.3 8-.07.18-.57 2.4-.83 3.62-.35-1.15-.69-2.3-1.08-3.46-1.14-3.33-2.39-6.66-3.63-10l-1.11-3.06c.48-.05 6.18-.59 8.47-1.91 2-1.17 4.3-3.23 4.61-5.69a4.172 4.172 0 0 0-3.9-4.83c-3.52-.08-7.27 5-8.3 8-.08.23-.8 3.41-.95 4.23-.81-2.25-1.6-4.5-2.28-6.75a72.202 72.202 0 0 1-2.24-9.25c.22 0 6.17-.56 8.52-1.91 2-1.17 4.3-3.23 4.61-5.7a4.171 4.171 0 0 0-3.9-4.82c-3.52-.09-7.27 5-8.3 8-.07.2-.62 2.62-.86 3.78h-.2a54.11 54.11 0 0 1-.53-9.56c0-1.76.17-3.44.33-5.07 1.12 0 6.23 0 8.47-1s4.64-2.73 5.22-5.15a4.15 4.15 0 0 0-.508-3.359 4.155 4.155 0 0 0-2.842-1.861c-3.49-.48-7.78 4.21-9.13 7-.08.16-.65 1.81-1.06 3 .09-.74.17-1.5.26-2.2.36-2.64.85-5 1.3-7.15.27-1.2.53-2.28.79-3.29 1.1-.56 5.52-2.87 7-4.75 1.48-1.88 2.85-4.56 2.25-7a4.172 4.172 0 0 0-4.95-2.75Z"/><path d="M45.15 191.87c2.75-.11 8.25-2.93 8.26-2.93.01 0-3-3.06-3.18-3.23-2.46-2-8.36-4.3-11.29-2.36a4.153 4.153 0 0 0-1.743 2.916 4.161 4.161 0 0 0 1.013 3.244c1.58 1.93 4.59 2.49 6.94 2.36Z"/></g><path fill="#CFD8DC" d="M78.76 267.39s16.7-40.25 26.05-38.5c9.35 1.75-16 64.17-16 64.17s29.38-55.42 49.42-55.42c20.04 0-7.35 61.25-32.72 81.67 0 0 40.06-43.17 63.43-33.83 23.37 9.34-46.74 53.08-46.74 53.08s40.73-12.83 36.06-2.91c-4.67 9.92-17.36 11.66-17.36 11.66l46.07 2.34H26.68l36.06-3.5s-37.4-18.67-27.38-26.25c10.02-7.58 32.05 8.75 32.05 8.75s-38.06-42-30.72-57.76c7.34-15.76 40.07 28.59 40.07 28.59S50.05 242.89 55.39 233s23.37 34.39 23.37 34.39Z"/><path fill="#fff" d="M78.76 267.39s16.7-40.25 26.05-38.5c9.35 1.75-16 64.17-16 64.17s29.38-55.42 49.42-55.42c20.04 0-7.35 61.25-32.72 81.67 0 0 40.06-43.17 63.43-33.83 23.37 9.34-46.74 53.08-46.74 53.08s40.73-12.83 36.06-2.91c-4.67 9.92-17.36 11.66-17.36 11.66l46.07 2.34H26.68l36.06-3.5s-37.4-18.67-27.38-26.25c10.02-7.58 32.05 8.75 32.05 8.75s-38.06-42-30.72-57.76c7.34-15.76 40.07 28.59 40.07 28.59S50.05 242.89 55.39 233s23.37 34.39 23.37 34.39Z" opacity=".5"/><path stroke="#263238" stroke-linecap="round" stroke-linejoin="round" d="M73.42 269.51c14.69 43.41 14.69 74.13 14.69 74.13s-17.36.66-35.39-12.69"/><path stroke="#263238" stroke-linecap="round" stroke-linejoin="round" d="M80.77 292.89a260.328 260.328 0 0 1 12-38.07"/><path stroke="#263238" stroke-linecap="round" stroke-linejoin="round" d="m124.17 267.51-37.39 55.43s-25.38-21.37-34.06-33.39m34.73 46.74s39.39-18.7 55.42-29.38"/><path fill="#CFD8DC" d="M294.19 267.39s-16.69-40.25-26-38.5c-9.31 1.75 16 64.17 16 64.17s-29.38-55.42-49.41-55.42c-20.03 0 7.34 61.25 32.72 81.67 0 0-40.07-43.17-63.44-33.83-23.37 9.34 46.75 53.08 46.75 53.08s-40.74-12.83-36.06-2.91 17.36 11.66 17.36 11.66L186 349.65h160.28l-36.06-3.5s37.39-18.67 27.38-26.25c-10.01-7.58-32.06 8.75-32.06 8.75s38.07-42 30.72-57.76c-7.35-15.76-40.07 28.59-40.07 28.59s26.72-56.59 21.37-66.51c-5.35-9.92-23.37 34.42-23.37 34.42Z"/><path fill="#fff" d="M294.19 267.39s-16.69-40.25-26-38.5c-9.31 1.75 16 64.17 16 64.17s-29.38-55.42-49.41-55.42c-20.03 0 7.34 61.25 32.72 81.67 0 0-40.07-43.17-63.44-33.83-23.37 9.34 46.75 53.08 46.75 53.08s-40.74-12.83-36.06-2.91 17.36 11.66 17.36 11.66L186 349.65h160.28l-36.06-3.5s37.39-18.67 27.38-26.25c-10.01-7.58-32.06 8.75-32.06 8.75s38.07-42 30.72-57.76c-7.35-15.76-40.07 28.59-40.07 28.59s26.72-56.59 21.37-66.51c-5.35-9.92-23.37 34.42-23.37 34.42Z" opacity=".5"/><path stroke="#263238" stroke-linecap="round" stroke-linejoin="round" d="M299.53 269.51c-14.69 43.41-14.69 74.13-14.69 74.13s17.36.66 35.39-12.69"/><path stroke="#263238" stroke-linecap="round" stroke-linejoin="round" d="M292.19 292.89a260.377 260.377 0 0 0-12-38.07"/><path stroke="#263238" stroke-linecap="round" stroke-linejoin="round" d="m248.78 267.51 37.4 55.43s25.37-21.37 34.05-33.39m-34.72 46.74s-39.4-18.7-55.43-29.38"/><path fill="#263238" stroke="#263238" stroke-miterlimit="10" d="M267.23 50.5h-154.4a6.75 6.75 0 0 0-6.75 6.75v289.09a6.75 6.75 0 0 0 6.75 6.75h154.4a6.75 6.75 0 0 0 6.75-6.75V57.25a6.75 6.75 0 0 0-6.75-6.75Z"/><path fill="#CFD8DC" d="M201.64 68.58h-20.9a2.152 2.152 0 0 1-2.15-2.15 2.144 2.144 0 0 1 1.328-1.98c.261-.107.54-.161.822-.16h20.9a2.138 2.138 0 0 1 2.14 2.14 2.145 2.145 0 0 1-1.319 1.986c-.26.108-.539.164-.821.164Z"/><path fill="#fff" stroke="#263238" stroke-linecap="round" stroke-linejoin="round" stroke-width=".939" d="M263.37 326.05H116.69V68.83h34.77l3.91 3.24a7.56 7.56 0 0 0 4.86 1.76h61.34a7.64 7.64 0 0 0 5-1.9l3.53-3.1h33.24l.03 257.22Z"/><path fill="#CFD8DC" d="m175.27 87.79-2-6.72h-49.92v238.05h133.81V87.79h-81.89Z"/><path fill="#fff" d="M128.05 99.9h124.4v211.82h-124.4V99.9Z"/><path fill="#CFD8DC" d="M194.72 334a3.336 3.336 0 0 0-2.055-3.093 3.339 3.339 0 1 0-1.285 6.423 3.35 3.35 0 0 0 3.34-3.33ZM180.91 302.47c22.622 0 40.96-26.093 40.96-58.28s-18.338-58.28-40.96-58.28-40.96 26.093-40.96 58.28 18.338 58.28 40.96 58.28Z"/><path fill="#fff" d="M180.91 302.47c22.622 0 40.96-26.093 40.96-58.28s-18.338-58.28-40.96-58.28-40.96 26.093-40.96 58.28 18.338 58.28 40.96 58.28Z" opacity=".5"/><path fill="#263238" stroke="#263238" stroke-linecap="round" stroke-linejoin="round" d="M186.72 179.14s-2.56-4.28-4.91-4.49c-2.35-.21-30.33 17.35-34.61 26.49-4.28 9.14-8.33 27.48 3 45.13 11.05 17.17 28.37 16.6 37.35 15.74 8.98-.86 15-3.78 24.1-11.08 9.1-7.3 17.45-18.05 18.66-25.35 1.21-7.3-3.24-11.36-6.08-12.37-2.84-1.01-19.27-.81-31.24-13-11.97-12.19-6.27-21.07-6.27-21.07Z"/><path fill="#fff" stroke="#263238" stroke-linecap="round" stroke-linejoin="round" d="M190.35 173.58s-7.26 2.78-11.75 7.69-7.26 12.61-7.47 23.93c-.21 11.32 3.42 24.13 17.51 29.69 14.09 5.56 26.7 1.28 30.76-2.57 4.06-3.85 9-14.73 9-14.73s-22.42 6-33.1-6.63c-10.68-12.63-4.95-37.38-4.95-37.38Z"/><path fill="#fff" d="M315.83 181.47c-5.48-8.22-18.56-10.65-28.9-14-10.34-3.35-16.43-10-13.69-26.46s17-43.2 16.73-48.07c-.27-4.87-49.28-4.56-53.85-3-4.57 1.56-5.47 1.21-9.73 6.69A75.772 75.772 0 0 0 220 106l5.28-11.1h.39a13.997 13.997 0 0 1 2.41-4 30.755 30.755 0 0 0 7.45-19.34c.2-10.47-7.25-9.46-8.66-6.24-1.41 3.22-9.66 14.3-12.08 17.32-2.42 3.02-7.45 11.28-7.45 11.28l-5.59 19.38s-1.22 5.78-8.22 27.69c-7 21.91-3.95 32.01-3.95 32.01s-1.83-.91-6.09 12.17-2.43 29.81 5.17 37.72 17.65 7.61 28.91 3.05A34.61 34.61 0 0 0 234 211.28s11.87-3 20.69-9.73c8.82-6.73 15.51-13.69 28.31-13.08 12.8.61 27.38 7.91 32.25 7.6 4.87-.31 6.06-6.39.58-14.6Z"/><mask id="a" width="139" height="167" x="181" y="63" maskUnits="userSpaceOnUse" style="mask-type:luminance"><path fill="#fff" d="M315.83 181.47c-5.48-8.22-18.56-10.65-28.9-14-10.34-3.35-16.43-10-13.69-26.46s17-43.2 16.73-48.07c-.27-4.87-49.28-4.56-53.85-3-4.57 1.56-5.47 1.21-9.73 6.69A75.772 75.772 0 0 0 220 106l5.28-11.1h.39a13.997 13.997 0 0 1 2.41-4 30.755 30.755 0 0 0 7.45-19.34c.2-10.47-7.25-9.46-8.66-6.24-1.41 3.22-9.66 14.3-12.08 17.32-2.42 3.02-7.45 11.28-7.45 11.28l-5.59 19.38s-1.22 5.78-8.22 27.69c-7 21.91-3.95 32.01-3.95 32.01s-1.83-.91-6.09 12.17-2.43 29.81 5.17 37.72 17.65 7.61 28.91 3.05A34.61 34.61 0 0 0 234 211.28s11.87-3 20.69-9.73c8.82-6.73 15.51-13.69 28.31-13.08 12.8.61 27.38 7.91 32.25 7.6 4.87-.31 6.06-6.39.58-14.6Z"/></mask><g mask="url(#a)"><path fill="#CFD8DC" d="M237.36 153c-33.85 5.05-44.49 13.13-41.11 24.25a17.184 17.184 0 0 0 3.35 6c0 .21 0 .44.06.68 0 0 .6.36 1.5 1a28.66 28.66 0 0 0 3.83 3.11c2.22 2.11 4.21 4.75 3.8 7.2-.87 5.22-13 14.34-19.13 14.78-6.13.44-8.26-5.65-9.13.87-.87 6.52 12.61 22.6 25.65 20.86 13.04-1.74 23.91-20 23.91-20s-1.74-3 7-12.17c5.74-6 13.95-8.65 20.24-11.11a115.718 115.718 0 0 0 17.31-6.64c15.47-7.58 33.85-2.52 33.85-2.52s-37.28-31.42-71.13-26.31Z"/><path fill="#fff" d="M237.36 153c-33.85 5.05-44.49 13.13-41.11 24.25a17.184 17.184 0 0 0 3.35 6c0 .21 0 .44.06.68 0 0 .6.36 1.5 1a28.66 28.66 0 0 0 3.83 3.11c2.22 2.11 4.21 4.75 3.8 7.2-.87 5.22-13 14.34-19.13 14.78-6.13.44-8.26-5.65-9.13.87-.87 6.52 12.61 22.6 25.65 20.86 13.04-1.74 23.91-20 23.91-20s-1.74-3 7-12.17c5.74-6 13.95-8.65 20.24-11.11a115.718 115.718 0 0 0 17.31-6.64c15.47-7.58 33.85-2.52 33.85-2.52s-37.28-31.42-71.13-26.31Z" opacity=".5"/></g><path stroke="#263238" stroke-linecap="round" stroke-linejoin="round" d="M315.83 181.47c-5.48-8.22-18.56-10.65-28.9-14-10.34-3.35-16.43-10-13.69-26.46s17-43.2 16.73-48.07c-.27-4.87-49.28-4.56-53.85-3-4.57 1.56-5.47 1.21-9.73 6.69A75.772 75.772 0 0 0 220 106l5.28-11.1h.39a13.997 13.997 0 0 1 2.41-4 30.755 30.755 0 0 0 7.45-19.34c.2-10.47-7.25-9.46-8.66-6.24-1.41 3.22-9.66 14.3-12.08 17.32-2.42 3.02-7.45 11.28-7.45 11.28l-5.59 19.38s-1.22 5.78-8.22 27.69c-7 21.91-3.95 32.01-3.95 32.01s-1.83-.91-6.09 12.17-2.43 29.81 5.17 37.72 17.65 7.61 28.91 3.05A34.61 34.61 0 0 0 234 211.28s11.87-3 20.69-9.73c8.82-6.73 15.51-13.69 28.31-13.08 12.8.61 27.38 7.91 32.25 7.6 4.87-.31 6.06-6.39.58-14.6Z"/><path fill="#fff" stroke="#263238" stroke-linecap="round" stroke-linejoin="round" d="M316 196s.64-2.56-6.62-6-10.25-1.07-10.25.64S314.88 196 316 196ZM247.21 78.83l-18.32 14.1h24.57s0-17.32-6.25-14.1Z"/><path stroke="#263238" stroke-linecap="round" stroke-linejoin="round" d="M224.23 180.53a25.592 25.592 0 0 1 9.48-6.73M220.9 186a12.27 12.27 0 0 1 1.09-2.33M213.6 205a26.832 26.832 0 0 1-2.74-2.79m23.14 9.07a26.82 26.82 0 0 1-16.3-3.34"/><path fill="#CFD8DC" stroke="#263238" stroke-miterlimit="10" stroke-width="2" d="M302.5 91.72h-92.32c-12.75 0-23.08 9.87-23.08 22v43.5c0 10.58 7.81 19.42 18.23 21.55l-4.87 14.41L223 179.3h79.5c12.74 0 23.08-9.87 23.08-22v-43.5c0-12.21-10.34-22.08-23.08-22.08Z"/><path stroke="#263238" stroke-linecap="round" stroke-miterlimit="10" stroke-width="2.064" d="M202.13 121.01h103.78M202.13 131.7h103.78m-103.78 10.68h103.78m-103.78 10.68h103.78"/><path fill="#263238" d="M324.74 129.85c7.108 0 12.87-5.502 12.87-12.29 0-6.788-5.762-12.29-12.87-12.29s-12.87 5.502-12.87 12.29c0 6.788 5.762 12.29 12.87 12.29Z"/><path fill="#fff" d="M323.74 126.24a5.307 5.307 0 0 1-.55-2.73v-10l-2.26 1.26a1.63 1.63 0 0 1-.8.22 1.485 1.485 0 0 1-1.12-.49 1.612 1.612 0 0 1-.45-1.14 1.376 1.376 0 0 1 .24-.81c.233-.279.51-.519.82-.71l4.38-2.24a3.456 3.456 0 0 1 1.66-.63c1.49 0 2.23 1.12 2.23 3.36v11.53c0 2.19-.78 3.28-2.35 3.28a1.918 1.918 0 0 1-1.8-.9ZM275.36 85.28s.41 8.05 7.66 11.88 16.51 3 16.71-1.81c.2-4.81-5.44-9.87-9.26-16.32-3.82-6.45-12.29-2.81-15.91 1.62"/><path stroke="#263238" stroke-linecap="round" stroke-linejoin="round" d="M275.36 85.28s.41 8.05 7.66 11.88 16.51 3 16.71-1.81c.2-4.81-5.44-9.87-9.26-16.32-3.82-6.45-12.29-2.81-15.91 1.62"/><path fill="#fff" d="M287.85 91.72c-.61 3.22 1.61 5 3.62 6s6 .41 8.26-2.41c.1-2.36-1.19-4.76-3-7.35-2.52.32-8.41 1.24-8.88 3.76Zm-27.59-6.44s.4 8.05 7.65 11.88 16.52 3 16.72-1.81c.2-4.81-5.44-9.87-9.27-16.32-3.83-6.45-12.28-2.81-15.91 1.62"/><path stroke="#263238" stroke-linecap="round" stroke-linejoin="round" d="M260.26 85.28s.4 8.05 7.65 11.88 16.52 3 16.72-1.81c.2-4.81-5.44-9.87-9.27-16.32-3.83-6.45-12.28-2.81-15.91 1.62m28.4 11.07c-.61 3.22 1.61 5 3.62 6s6 .41 8.26-2.41c.1-2.36-1.19-4.76-3-7.35-2.52.32-8.41 1.24-8.88 3.76Z"/><path fill="#fff" d="M272.75 91.72c-.61 3.22 1.61 5 3.62 6s6 .41 8.26-2.41c.09-2.36-1.2-4.76-3-7.35-2.52.32-8.41 1.24-8.88 3.76Zm-26.54-6.44s.4 8.05 7.65 11.88 16.51 3 16.71-1.81c.2-4.81-5.43-9.87-9.26-16.32-3.83-6.45-12.29-2.81-15.91 1.62"/><path stroke="#263238" stroke-linecap="round" stroke-linejoin="round" d="M246.21 85.28s.4 8.05 7.65 11.88 16.51 3 16.71-1.81c.2-4.81-5.43-9.87-9.26-16.32-3.83-6.45-12.29-2.81-15.91 1.62m27.35 11.07c-.61 3.22 1.61 5 3.62 6s6 .41 8.26-2.41c.09-2.36-1.2-4.76-3-7.35-2.52.32-8.41 1.24-8.88 3.76Z"/><path fill="#fff" stroke="#263238" stroke-linecap="round" stroke-linejoin="round" d="M258.69 91.72c-.6 3.22 1.61 5 3.63 6 2.02 1 6 .41 8.25-2.41.1-2.36-1.19-4.76-3-7.35-2.52.32-8.41 1.24-8.88 3.76Z"/><path stroke="#263238" stroke-linecap="round" stroke-linejoin="round" d="M189.58 173s.56 12.38 7.39 20.71"/><path fill="#fff" d="M169.7 224.67c0 2.52-1.68 4.56-3.75 4.56-2.07 0-3.75-2-3.75-4.56 0-2.56 1.68-4.56 3.75-4.56 2.07 0 3.75 2.04 3.75 4.56Z"/><path stroke="#263238" stroke-linecap="round" stroke-linejoin="round" d="M160.37 230.35c0 2.52-1.68 4.56-3.75 4.56-2.07 0-3.75-2-3.75-4.56 0-2.56 1.68-4.57 3.75-4.57 2.07 0 3.75 2.05 3.75 4.57Z"/></svg>